<?xml version="1.0" encoding="utf-8"?>
<svg version="1.1" id="Layer_1" xmlns="http://www.w3.org/2000/svg" xmlns:xlink="http://www.w3.org/1999/xlink" x="0px"
     y="0px"
     viewBox="0 0 3000 3000" enable-background="new 0 0 3000 3000" xml:space="preserve">
		<path fill="#B4202E" d="M1677.9,1155.3c1.4,0.9,3,1.8,4.6,2.7c0.7,0.4,1.4,0.8,2.1,1.2c1,0.6,2,1.2,3,1.7c0.3,0.2,0.6,0.3,0.9,0.5
			c0.5,0.3,0.9,0.5,1.4,0.8c1.1,0.6,2.1,1.2,3.3,1.8c0.6,0.3,1.1,0.6,1.7,0.9c0.6,0.3,1.2,0.6,1.7,0.9c1.5,0.8,3,1.6,4.5,2.4
			c0.5,0.3,1,0.5,1.6,0.8c1.1,0.6,2.1,1.1,3.2,1.7c0.9,0.5,1.8,0.9,2.7,1.4c5.2,2.7,10.8,5.5,16.9,8.4c0.5,0.2,1,0.5,1.5,0.7
			c0.9,0.4,1.7,0.8,2.6,1.2c0.8,0.4,1.7,0.8,2.6,1.2c0.9,0.4,1.8,0.8,2.6,1.2c4.1,1.9,8.4,3.8,12.9,5.8c0.7,0.3,1.5,0.6,2.2,1
			c0.8,0.3,1.5,0.6,2.3,1c0.6,0.3,1.3,0.5,1.9,0.8c3.5,1.5,7.1,3,10.7,4.4c0.8,0.3,1.6,0.6,2.4,1c1.2,0.5,2.3,0.9,3.5,1.4
			c2.4,0.9,4.9,1.9,7.3,2.8c0.1,0,0.2,0.1,0.3,0.1c1,0.4,2.1,0.8,3.1,1.2c0.9,0.3,1.8,0.7,2.7,1c1.1,0.4,2.1,0.8,3.2,1.2
			c0.9,0.3,1.7,0.6,2.6,0.9c0.9,0.3,1.8,0.6,2.7,1c0.9,0.3,1.8,0.6,2.7,0.9c0.5,0.2,0.9,0.3,1.4,0.5c0.9,0.3,1.8,0.6,2.7,0.9
			c0.1,0,0.1,0,0.2,0.1c1.3,0.5,2.6,0.9,4,1.4c1.7,0.6,3.4,1.1,5,1.7c0.1,0,0.3,0.1,0.4,0.1c1.6,0.5,3.1,1,4.7,1.5
			c1.3,0.4,2.5,0.8,3.8,1.2c0.5,0.1,0.9,0.3,1.4,0.4c1.4,0.5,2.9,0.9,4.4,1.4c0.3,0.1,0.6,0.2,0.9,0.3c1,0.3,1.9,0.6,2.9,0.9
			c1.7,0.5,3.4,1,5,1.5c1,0.3,2,0.6,3,0.9c0.4,0.1,0.8,0.2,1.2,0.3c1,0.3,2.1,0.6,3.1,0.9c1.1,0.3,2.2,0.6,3.2,0.9
			c1,0.3,2,0.6,3.1,0.8c1.1,0.3,2.1,0.6,3.2,0.9c0.5,0.1,1,0.3,1.4,0.4c0.9,0.2,1.8,0.5,2.8,0.7c0.4,0.1,0.7,0.2,1.1,0.3
			c1.3,0.4,2.7,0.7,4.1,1c1.4,0.4,2.8,0.7,4.1,1c0.2,0,0.3,0.1,0.5,0.1c1.4,0.4,2.9,0.7,4.3,1c0.7,0.2,1.4,0.3,2.1,0.5
			c1.9,0.4,3.8,0.9,5.6,1.3c1.4,0.3,2.7,0.6,4.1,0.9c0.7,0.1,1.4,0.3,2.1,0.4c1.5,0.3,3,0.6,4.5,1c0.3,0.1,0.7,0.1,1,0.2
			c1.9,0.4,3.7,0.8,5.6,1.1c0.8,0.2,1.7,0.3,2.6,0.5c1.4,0.3,2.8,0.5,4.3,0.8c0.1,0,0.2,0,0.2,0c1.5,0.3,3,0.6,4.5,0.8
			s3,0.5,4.5,0.8c1.3,0.2,2.7,0.5,4,0.7c0.4,0.1,0.7,0.1,1.1,0.2c2.9,0.5,5.8,0.9,8.7,1.4c3.1,0.5,6.2,0.9,9.4,1.4
			c1.2,0.2,2.3,0.3,3.5,0.5c4.6,0.6,9.2,1.2,13.9,1.7c1,0.1,1.9,0.2,2.9,0.3c0.7,0.1,1.4,0.1,2.2,0.2c1.3,0.1,2.5,0.3,3.8,0.4
			c1.3,0.1,2.5,0.2,3.8,0.4c0.9,0.1,1.9,0.2,2.8,0.3c0.8,0.1,1.5,0.1,2.3,0.2c0.6,0.1,1.1,0.1,1.7,0.1c0.2,0,0.3,0,0.5,0
			c0.3,0,0.7,0.1,1,0.1c0.4,0,0.8,0.1,1.1,0.1c1.1,0.1,2.1,0.2,3.2,0.2c1.5,0.1,3,0.2,4.5,0.3c1,0.1,2.1,0.1,3.1,0.2
			c1,0.1,2.1,0.1,3.1,0.2c0.8,0.1,1.5,0.1,2.3,0.1c0.7,0,1.4,0.1,2.2,0.1c2.5,0.1,5.1,0.2,7.7,0.3c2.6,0.1,5.1,0.2,7.7,0.2
			c3.4,0.1,6.7,0.1,10,0.2c1.6,0,3.3,0.1,4.9,0.1c2.3,0,4.6,0.1,6.9,0.1c1,0,1.9,0,2.9,0c6.8,0.1,13.4,0.1,19.9,0c0.6,0,1.2,0,1.8,0
			c0.3,0,0.6,0,0.9,0c1.3,0,2.6,0,3.9,0c1.3,0,2.6,0,3.8,0c1.8,0,3.6-0.1,5.4-0.1c1.5,0,2.9,0,4.4-0.1c2.1,0,4.3-0.1,6.3-0.1
			c1.8,0,3.5-0.1,5.3-0.1c1.2,0,2.3-0.1,3.5-0.1c5.8-0.2,11.4-0.4,17-0.6c1.4-0.1,2.8-0.1,4.2-0.2c1.1,0,2.2-0.1,3.3-0.1
			c1.1-0.1,2.2-0.1,3.3-0.2c2.2-0.1,4.3-0.2,6.4-0.3c1.7-0.1,3.3-0.2,4.9-0.3c1.6-0.1,3.3-0.2,4.9-0.3c1.6-0.1,3.3-0.2,4.9-0.3
			c1.5-0.1,3.1-0.2,4.6-0.3c1.5-0.1,3-0.2,4.4-0.3c0.7,0,1.5-0.1,2.2-0.2s1.5-0.1,2.2-0.2c3.4-0.3,6.8-0.5,10.2-0.8
			c1.4-0.1,2.8-0.3,4.2-0.4c2.8-0.3,5.6-0.5,8.3-0.8c1.4-0.1,2.7-0.3,4-0.4c0.8-0.1,1.6-0.2,2.4-0.2c1.9-0.2,3.7-0.4,5.6-0.6
			c0.1,0,0.1,0,0.2,0c2-0.2,4-0.5,6-0.7c0.7-0.1,1.3-0.1,2-0.2c3.6-0.4,7.2-0.9,10.6-1.3c2.8-0.4,5.5-0.7,8.2-1.1
			c3.1-0.4,6.1-0.9,9.1-1.3c5.5-0.8,10.8-1.7,15.8-2.5c1-0.2,2-0.3,3-0.5c3.1-0.5,6.1-1.1,9-1.6c0.8-0.1,1.6-0.3,2.4-0.5
			c1.1-0.2,2.1-0.4,3.2-0.6c0.7-0.1,1.4-0.3,2.1-0.4c1.5-0.3,3-0.6,4.5-0.9c1.1-0.2,2.1-0.4,3.1-0.6c0.7-0.2,1.4-0.3,2.1-0.5
			c0.4-0.1,0.7-0.1,1.1-0.2c1.3-0.3,2.5-0.5,3.7-0.8c2-0.4,3.9-0.9,5.8-1.3c0.6-0.1,1.2-0.3,1.9-0.4c2.4-0.6,4.8-1.1,6.9-1.7
			c-17.3-46-37.3-90.7-59.6-133c-1.3,0.1-2.6,0.3-3.9,0.4c-0.4,0-0.8,0.1-1.2,0.1c-2.6,0.2-5.1,0.5-7.7,0.7c-0.1,0-0.1,0-0.2,0
			c-2.3,0.2-4.5,0.4-6.8,0.6c-0.2,0-0.5,0-0.7,0.1c-0.9,0.1-1.8,0.1-2.7,0.2c-0.3,0-0.5,0.1-0.8,0.1c-2.3,0.2-4.5,0.4-6.8,0.5
			c-2.3,0.2-4.5,0.3-6.8,0.5c-1.3,0.1-2.5,0.2-3.8,0.3c-1.2,0.1-2.4,0.2-3.6,0.2c-2.5,0.1-4.9,0.3-7.4,0.4c-1.6,0.1-3.2,0.2-4.8,0.3
			c-0.9,0-1.8,0.1-2.6,0.1c-4.6,0.2-9.2,0.4-13.7,0.6c-1.3,0.1-2.7,0.1-4,0.1c-1.4,0.1-2.9,0.1-4.3,0.1c-2.4,0.1-4.9,0.1-7.3,0.2
			c-4.8,0.1-9.5,0.2-14.2,0.3c-2,0-4.1,0-6.1,0.1h-0.6c-2.7,0-5.4,0-8.1,0c-2.5,0-4.9,0-7.4,0c-1.2,0-2.4,0-3.6,0
			c-1.2,0-2.4,0-3.6,0c-2.4,0-4.8-0.1-7.2-0.1c-1,0-2,0-2.9-0.1c-2.8-0.1-5.5-0.1-8.2-0.2c-2.7-0.1-5.5-0.2-8.2-0.3
			c-1.9-0.1-3.9-0.1-5.8-0.2c-1.9-0.1-3.9-0.2-5.8-0.3c-1.9-0.1-3.9-0.2-5.8-0.3c-3.9-0.2-7.7-0.4-11.6-0.7
			c-2.4-0.2-4.9-0.3-7.3-0.5c-1-0.1-2.1-0.1-3.1-0.2c-3.6-0.3-7.2-0.6-10.8-0.9c-1-0.1-1.9-0.2-2.9-0.3c-1.5-0.1-3-0.3-4.6-0.4
			c-2.5-0.2-4.9-0.5-7.4-0.7c-2.8-0.3-5.6-0.6-8.4-0.9c-1.1-0.1-2.1-0.2-3.2-0.4c-0.2,0-0.5,0-0.7-0.1c-2.1-0.2-4.1-0.5-6.2-0.7
			c-2-0.2-4-0.5-5.9-0.8c-1.7-0.2-3.4-0.4-5.1-0.7c-1.5-0.2-2.9-0.4-4.4-0.6c-2.1-0.3-4.1-0.6-6.2-0.9c-1.7-0.3-3.4-0.5-5.2-0.8
			c-2.2-0.3-4.5-0.7-6.7-1c-0.3,0-0.6-0.1-0.8-0.1h-0.1c-0.4-0.1-0.8-0.1-1.3-0.2c-1.5-0.2-2.9-0.5-4.4-0.7
			c-0.4-0.1-0.7-0.1-1.1-0.2c-0.3-0.1-0.7-0.1-1-0.2c-0.2,0-0.4-0.1-0.7-0.1c-0.6-0.1-1.3-0.2-1.9-0.3c-1.4-0.2-2.7-0.5-4.1-0.7
			c-3.7-0.6-7.4-1.3-11-2c-2.1-0.4-4.3-0.8-6.4-1.2c-2.6-0.5-5.3-1.1-7.9-1.6c-1.7-0.4-3.4-0.7-5.1-1.1c-1-0.2-2.1-0.4-3.1-0.7
			c-0.9-0.2-1.8-0.4-2.7-0.6c-2.8-0.6-5.6-1.2-8.4-1.9c-1.8-0.4-3.7-0.9-5.5-1.3c-1.2-0.3-2.4-0.6-3.6-0.9c-2.8-0.7-5.6-1.4-8.4-2.1
			c-2.3-0.6-4.5-1.1-6.7-1.7c-4.6-1.2-9.1-2.4-13.6-3.7c-1.4-0.4-2.9-0.8-4.3-1.2c-2.4-0.7-4.8-1.4-7.1-2c-2.8-0.8-5.5-1.6-8.3-2.5
			c-2.7-0.8-5.5-1.7-8.2-2.6c-2.1-0.7-4.2-1.3-6.2-2c-2-0.7-4.1-1.3-6.1-2c-1-0.3-2-0.7-3-1c-6.6-2.2-13-4.5-19.2-6.8
			c-1.2-0.4-2.4-0.9-3.6-1.3c-4.2-1.6-8.3-3.2-12.3-4.8c-2.5-1-5-2-7.4-3c-1.4-0.6-2.7-1.1-4.1-1.7c-1.2-0.5-2.3-1-3.5-1.5
			c-1.4-0.6-2.9-1.2-4.3-1.8c-1.5-0.7-3.1-1.3-4.6-2c-0.8-0.3-1.5-0.7-2.3-1c-0.5-0.2-0.9-0.4-1.4-0.6c-3.8-1.7-7.6-3.4-11.2-5.1
			c-1.2-0.6-2.4-1.1-3.6-1.7c-2.1-1-4.2-2-6.3-3c-3.1-1.5-6.1-3-9-4.5c-2-1-3.9-2-5.7-2.9c-1.9-1-3.7-1.9-5.5-2.9
			c-7.2-3.8-13.8-7.6-19.8-11.1c-0.9-0.5-1.8-1.1-2.8-1.6c-1.1-0.6-2.1-1.2-3.1-1.9c-0.6-0.4-1.2-0.7-1.7-1.1
			c-0.6-0.3-1.1-0.7-1.7-1c-1.1-0.7-2.2-1.4-3.2-2c-3.2-2-6.1-3.9-8.9-5.7c-0.3-0.2-0.6-0.4-0.8-0.6c23.5,42.3,44.8,93.2,32,138
			c-3.7,12.8-9.1,24.2-16.3,34.1c0.6,0.4,1.3,0.8,1.9,1.2C1677.3,1154.9,1677.6,1155.1,1677.9,1155.3z"/>
    <path fill="#999651" d="M1682.4,986.6c1.2,0.7,2.4,1.4,3.6,2.1c0.6,0.4,1.2,0.7,1.8,1.1c0.6,0.4,1.3,0.7,1.9,1.1
			c0.6,0.4,1.3,0.7,1.9,1.1c1.3,0.7,2.6,1.5,3.9,2.2c0.7,0.4,1.3,0.8,2,1.1c0.9,0.5,1.8,1,2.8,1.5c6.5,3.6,13.6,7.3,21.2,11
			c0.7,0.4,1.4,0.7,2.1,1.1c0.8,0.4,1.6,0.8,2.4,1.2c1,0.5,2,1,3.1,1.5c1,0.5,2.1,1,3.1,1.5c1,0.5,2.1,1,3.2,1.5
			c1.1,0.5,2.1,1,3.2,1.5c2.2,1,4.3,2,6.6,3c2.2,1,4.5,2,6.8,3c5.8,2.5,11.8,5,18,7.5c1.2,0.5,2.5,1,3.8,1.5
			c7.5,3,15.3,5.9,23.4,8.8c1.4,0.5,2.8,1,4.2,1.5c7,2.4,14.2,4.9,21.7,7.2c2,0.6,4.1,1.3,6.1,1.9c2,0.6,4.1,1.3,6.1,1.9
			c2,0.6,4.1,1.2,6.2,1.8c2,0.6,4.1,1.2,6.2,1.8c1.2,0.3,2.3,0.7,3.5,1c1.2,0.3,2.3,0.6,3.5,1c2.5,0.7,5,1.4,7.5,2
			c2.1,0.5,4.2,1.1,6.3,1.6c2.8,0.7,5.6,1.4,8.4,2.1c2.3,0.6,4.6,1.1,6.9,1.7c1.6,0.4,3.2,0.7,4.8,1.1c2.6,0.6,5.2,1.2,7.8,1.8
			c0.9,0.2,1.7,0.4,2.6,0.6c1.1,0.3,2.2,0.5,3.4,0.7c1.4,0.3,2.8,0.6,4.3,0.9c1,0.2,2,0.4,3,0.6c0.2,0,0.4,0.1,0.6,0.1
			c1.7,0.3,3.3,0.7,5,1c2.9,0.6,5.7,1.1,8.6,1.6c1.4,0.3,2.9,0.5,4.3,0.8c2.9,0.5,5.8,1,8.7,1.5c1.4,0.3,2.9,0.5,4.4,0.7
			c2.9,0.5,5.8,1,8.7,1.4c1.5,0.2,2.9,0.4,4.4,0.7c2.9,0.4,5.9,0.9,8.8,1.3c1.5,0.2,2.9,0.4,4.4,0.6c2.2,0.3,4.4,0.6,6.6,0.9
			c2.2,0.3,4.4,0.6,6.7,0.8h0c4.5,0.5,8.9,1.1,13.4,1.5h0c6,0.7,12,1.2,18,1.8c0,0,0,0,0,0c1.9,0.2,3.8,0.3,5.7,0.5
			c1.3,0.1,2.6,0.2,4,0.3c1.5,0.1,3,0.2,4.6,0.4c2.8,0.2,5.7,0.4,8.6,0.6c0,0,0,0,0,0c5.7,0.4,11.4,0.7,17.2,1
			c1.3,0.1,2.5,0.1,3.8,0.2c2.2,0.1,4.4,0.2,6.6,0.3c2.1,0.1,4.2,0.2,6.3,0.2c2.1,0.1,4.2,0.1,6.3,0.2c2.5,0.1,5,0.1,7.5,0.2
			c3.6,0.1,7.3,0.1,10.9,0.2c4.5,0,9,0.1,13.5,0c1,0,2,0,3,0c1.8,0,3.6,0,5.4,0c0.3,0,0.6,0,1,0c1.5,0,3.1,0,4.6-0.1
			c0.4,0,0.9,0,1.3,0c2.6,0,5.1-0.1,7.7-0.2c2.6-0.1,5.2-0.1,7.7-0.2c1.4,0,2.8-0.1,4.2-0.1c0.9,0,1.8-0.1,2.7-0.1
			c1.4,0,2.9-0.1,4.3-0.2c2.5-0.1,5-0.2,7.5-0.3c2.5-0.1,5-0.2,7.5-0.4c1.8-0.1,3.6-0.2,5.3-0.3c4-0.2,8.1-0.5,12.1-0.7
			c1.8-0.1,3.7-0.3,5.5-0.4c4.9-0.3,9.7-0.7,14.6-1.1c1.3-0.1,2.7-0.2,4-0.3c1.3-0.1,2.7-0.2,4-0.4c0.9-0.1,1.9-0.2,2.8-0.3
			c0.3,0,0.5,0,0.8-0.1c1.8-0.2,3.7-0.3,5.5-0.5c-12.9-24-26.6-47.1-40.6-68.9l-1.3-2c-11.6-17.8-20.9-30.8-26.4-38.5l-1.9-2.7
			c-0.6-0.8-1.2-1.7-1.6-2.5c-0.2-0.4-0.4-0.7-0.6-1.1c0-0.1-0.1-0.1-0.1-0.2c-0.1-0.2-0.2-0.4-0.3-0.6c-0.6-1.2-1-2.3-1.3-3.5
			c-0.1-0.2-0.1-0.4-0.2-0.7c-0.2-0.7-0.3-1.3-0.4-1.9c0-0.2,0-0.3-0.1-0.5c-1.1-10.5,8.1-19.5,19.7-30.9
			c17.4-17,43.6-42.7,63.4-93.9c17-43.9,24.1-97.8,19.9-151.7c-6.5-83.4-39.5-156.5-92.9-205.9c-111.4-103-303.7-112.8-457.3-23.5
			c-162.5,94.5-156.9,244.6-139.1,325.7c13.8,62.9,35.7,95.6,56.8,127.3c6.2,9.3,12.1,18.1,17.7,27.6c2.2,3.8,4.7,7.8,7.3,12.1
			c3.4,5.7,7,11.5,10.7,17.8c1,0.7,2,1.5,3.2,2.3c0.4,0.3,0.8,0.6,1.2,0.8c0.8,0.5,1.5,1.1,2.3,1.6c0.3,0.2,0.5,0.4,0.8,0.6
			c6,4.2,13.6,9.2,22.9,14.7C1681,985.7,1681.7,986.1,1682.4,986.6z"/>
    <path fill="#999651" d="M2231.2,1090.6l-2.8-5.3C2229.4,1087.1,2230.3,1088.9,2231.2,1090.6L2231.2,1090.6z"/>
    <path fill="#999651"
          d="M1659.4,981.5L1659.4,981.5c0.3,0.2,0.6,0.4,0.8,0.6C1659.9,981.9,1659.6,981.7,1659.4,981.5z"/>
    <path fill="#318781" d="M950.1,1267c0.1,1.2,0.3,2.4,0.4,3.6c0.1,1,0.3,2.1,0.4,3.1c0.1,0.6,0.1,1.1,0.2,1.7
			c0.1,0.5,0.1,0.9,0.2,1.4c0.1,0.8,0.3,1.7,0.4,2.5c0.2,1,0.3,1.9,0.5,2.9c0.2,1.1,0.4,2.3,0.6,3.4c0,0.2,0.1,0.4,0.1,0.6
			c0.2,1,0.4,1.9,0.6,2.9c0.1,0.3,0.1,0.7,0.2,1c0.2,1.1,0.5,2.2,0.7,3.4c0.2,1,0.4,1.9,0.6,2.9c0.1,0.4,0.2,0.9,0.3,1.3
			c0.2,1,0.5,2,0.7,3c0,0.1,0.1,0.2,0.1,0.3c0.3,1.1,0.5,2.2,0.8,3.3c0.7,2.6,1.4,5.2,2.1,7.7c0.3,1.2,0.7,2.3,1,3.5
			c0.2,0.8,0.5,1.6,0.7,2.4c2,6.4,4.2,12.7,6.6,18.8c0.8,2.2,1.7,4.4,2.6,6.5c0.5,1.2,1,2.3,1.5,3.5c0.5,1.1,0.9,2.2,1.4,3.3
			c3.7,8.6,7.8,16.9,12.1,24.8c0.5,1,1.1,2,1.6,3c0.5,1,1.1,2,1.7,3c0.5,1,1.1,2,1.7,3c0.6,1,1.1,2,1.7,2.9c0.5,0.9,1,1.8,1.6,2.7
			c8.4,14.2,17.5,27.4,26.5,39.3c0.6,0.8,1.3,1.6,1.9,2.5c1.3,1.6,2.5,3.2,3.8,4.8c0.6,0.8,1.3,1.6,1.9,2.4
			c5,6.2,9.9,12.1,14.7,17.5c41.8,47.3,82.3,75,82.7,75.3l10.8,7.3h-13c-4.8,0-9.6,0-14.3-0.1c-2.4-0.1-4.8-0.1-7.2-0.2
			c-1.5,0-3-0.1-4.5-0.1c-1.8-0.1-3.7-0.1-5.5-0.2c-1.8-0.1-3.6-0.2-5.3-0.2c-2.1-0.1-4.3-0.2-6.4-0.3c-1-0.1-1.9-0.1-2.9-0.2
			c-1.7-0.1-3.4-0.2-5-0.3c-0.2,0-0.4,0-0.6,0c-2.2-0.1-4.4-0.3-6.6-0.5c-0.2,0-0.4,0-0.6,0c-2.1-0.2-4.2-0.3-6.3-0.5
			c-0.3,0-0.7-0.1-1-0.1c-2-0.2-4-0.4-6-0.6c-0.4,0-0.9-0.1-1.3-0.1c-1.8-0.2-3.6-0.4-5.4-0.6c-0.5-0.1-1.1-0.1-1.7-0.2
			c-1.8-0.2-3.5-0.4-5.3-0.6c-0.6-0.1-1.2-0.1-1.8-0.2c-1.5-0.2-3-0.4-4.4-0.6c-1-0.1-2-0.3-3-0.4c-1.5-0.2-3-0.4-4.4-0.6
			c-0.5-0.1-1.1-0.1-1.6-0.2c-1.5-0.2-3.1-0.4-4.6-0.7c-1-0.2-2.1-0.3-3.1-0.5c-1.1-0.2-2.1-0.3-3.1-0.5c-1.3-0.2-2.7-0.4-4-0.7
			c-0.7-0.1-1.5-0.3-2.2-0.4c-1.4-0.2-2.8-0.5-4.2-0.8c-1.3-0.2-2.7-0.5-4-0.7c-0.6-0.1-1.2-0.2-1.8-0.3c-1.2-0.2-2.4-0.5-3.6-0.7
			c-1.5-0.3-3-0.6-4.5-0.9c-2.1-0.4-4.3-0.9-6.4-1.4c-2-0.4-3.9-0.9-5.9-1.3c-0.8-0.2-1.6-0.4-2.4-0.6c-1.4-0.3-2.8-0.6-4.2-1
			c-0.5-0.1-1.1-0.3-1.6-0.4c-1.6-0.4-3.2-0.8-4.7-1.2c-6.3-1.6-12.6-3.3-18.8-5.1c-4.1-1.2-8.1-2.4-12.1-3.7c-2-0.6-4-1.3-6-2
			c-1.7-0.6-3.5-1.2-5.2-1.8c-0.3-0.1-0.6-0.2-0.9-0.3c-1.9-0.7-3.8-1.3-5.8-2c1.2,4.6,2.6,9.8,4.5,15.7c0.5,1.5,0.9,3,1.4,4.5
			c0.1,0.2,0.1,0.4,0.2,0.5c0.2,0.6,0.4,1.2,0.6,1.8c0.4,1.2,0.8,2.4,1.3,3.6c0.4,1.2,0.8,2.4,1.3,3.6c1,2.6,2,5.4,3.1,8.1
			c0.4,0.9,0.8,1.9,1.1,2.8c2.2,5.5,4.7,11.2,7.5,17.1c0.3,0.7,0.6,1.3,1,2c0.4,0.8,0.8,1.7,1.2,2.5c0.3,0.7,0.7,1.4,1,2.1
			c0.7,1.3,1.3,2.7,2.1,4c0.4,0.9,0.9,1.8,1.4,2.6c0.5,0.9,1,1.9,1.5,2.8c0.5,0.9,1,1.8,1.5,2.7c0.3,0.5,0.5,0.9,0.8,1.4l1.1,2
			c8.5,14.9,18.3,29.1,29,42.3c34.2,41.9,73,77.9,98.8,101.7c13.1,12.1,21.6,20.1,26.5,25.6c0.5,0.6,1,1.1,1.4,1.7
			c0.4,0.5,0.8,1,1.2,1.5c0.4,0.5,0.7,0.9,1,1.4c0.1,0.2,0.3,0.4,0.4,0.6c0.3,0.4,0.5,0.8,0.7,1.2c0.2,0.4,0.4,0.8,0.5,1.1
			c0.1,0.4,0.2,0.7,0.3,1c0,0.2,0.1,0.4,0.1,0.7c0,0.3,0.1,0.7,0,1.1c0,0.3,0,0.7-0.1,1c0,0.2-0.1,0.5-0.1,0.7
			c-0.1,0.2-0.2,0.5-0.2,0.7c0,0,0,0,0,0c-0.1,0.2-0.2,0.4-0.3,0.6c-0.1,0.2-0.2,0.3-0.3,0.5c52.6,19.9,199.1,59.7,300.9-64.1
			l129-157l6.2,5.1l-129,157c-47,57.2-108.2,87.3-181.7,89.3c-2.7,0.1-5.3,0.1-7.9,0.1c-54.6,0-101.7-15.5-126.2-25.3
			c-12.6,2.7-37-0.7-55.7-7.9l-26.3-10.1l-0.3-0.2c0,0-0.1,0-0.1-0.1c0,0-0.1-0.1-0.2-0.1c-0.1-0.1-0.3-0.2-0.5-0.3
			c-0.5-0.2-1.2-0.5-2.1-0.8c-0.2-0.1-0.4-0.1-0.6-0.2c-0.1,0-0.3-0.1-0.4-0.1c-0.2-0.1-0.4-0.1-0.6-0.1c-2-0.4-4.5-0.4-7,0.6
			c-0.4,0.2-0.8,0.3-1.1,0.6c-1.1,0.6-2.3,1.5-3.3,2.7c-0.7,0.7-1.6,3.5-0.9,9.1c3.7,28.5,41.5,83.8,136.1,145.8c1.5,1,3.1,2,4.7,3
			c1.6,1,3.2,2,4.8,3c0.8,0.5,1.6,1,2.4,1.5c1.6,1,3.3,1.9,5,2.9c0.8,0.5,1.7,1,2.5,1.4c2.5,1.4,5.1,2.9,7.8,4.3
			c1.8,1,3.5,1.9,5.3,2.8c2.7,1.4,5.4,2.8,8.2,4.1c1.8,0.9,3.7,1.8,5.6,2.7s3.8,1.8,5.7,2.7c1,0.4,1.9,0.9,2.9,1.3
			c10.6,4.9,21.8,9.5,33.3,14c1.6,0.6,3.2,1.2,4.8,1.8c3.2,1.2,6.4,2.4,9.6,3.6c3.3,1.2,6.5,2.3,9.8,3.5c3.3,1.1,6.6,2.3,10,3.4
			c1.7,0.5,3.4,1.1,5.1,1.6c3.4,1.1,6.8,2.2,10.2,3.2c3.4,1.1,6.9,2.1,10.4,3.1c1.1,0.4,2.3,0.7,3.5,1c2.3,0.7,4.7,1.3,7,2
			c2.3,0.7,4.7,1.3,7.1,2c2.4,0.7,4.7,1.3,7.1,1.9c1.2,0.3,2.4,0.6,3.6,0.9c3.6,0.9,7.2,1.9,10.8,2.8
			c135.3,33.9,292.8,43.3,387.8,14.9c82-24.4,155.9-72.7,207.9-136c45-54.7,73.1-119.5,81.2-187.7c10.8-90.1-13.5-178.5-66.7-242.6
			c-47-56.7-112.9-89.5-190.7-94.9c-19-1.3-38.1-0.9-56.8,1.3c-78.2,9.1-138.6,47.7-175.5,78.5c-40.1,33.4-62,65.2-62.2,65.5
			l-6.6-4.5c0.9-1.3,22.6-32.8,63.5-67c37.1-31,97.4-69.7,175.6-79.9c0,0,0-0.1,0-0.2c-0.1-0.5-0.2-1-0.3-1.5
			c-1-4.5-2.3-8.9-3.6-13.4c-0.3-0.9-0.6-1.8-0.9-2.7c-0.3-0.9-0.6-1.8-0.9-2.7c-0.2-0.7-0.4-1.3-0.7-2c-0.2-0.6-0.4-1.1-0.6-1.7
			c-1.2-3.3-2.5-6.6-3.8-9.9c-0.3-0.7-0.6-1.4-0.9-2c-0.2-0.4-0.4-0.9-0.5-1.3c-0.3-0.7-0.6-1.3-0.9-2c-0.5-1.2-1.1-2.4-1.6-3.6
			c-0.5-1.2-1.1-2.4-1.7-3.6c-0.2-0.4-0.4-0.8-0.6-1.2c-0.2-0.4-0.4-0.8-0.6-1.2c-0.4-0.9-0.8-1.7-1.3-2.6c-0.6-1.1-1.2-2.3-1.8-3.4
			c-0.1-0.3-0.3-0.6-0.5-0.9c-0.6-1.1-1.1-2.2-1.7-3.3c-0.3-0.6-0.7-1.2-1-1.9c-0.6-1-1.1-2.1-1.7-3.1c-0.5-0.8-0.9-1.6-1.4-2.5
			c-0.5-0.8-0.9-1.6-1.4-2.4c-0.3-0.6-0.7-1.1-1-1.7c-0.7-1.2-1.4-2.3-2-3.4c-0.4-0.7-0.8-1.4-1.3-2.1c-1-1.7-2-3.3-3.1-4.9
			c-0.4-0.7-0.9-1.4-1.3-2.1c-0.7-1.2-1.5-2.3-2.2-3.4c-0.8-1.1-1.5-2.3-2.3-3.4c-1-1.5-2-3-3-4.4c-0.5-0.7-1-1.5-1.5-2.2
			c-0.5-0.7-1-1.4-1.5-2.2c-0.5-0.7-1-1.4-1.5-2.1c-0.4-0.6-0.8-1.2-1.3-1.8c-1.6-2.2-3.2-4.4-4.8-6.5c-1-1.3-2-2.6-3-4
			c-7.2-9.3-14-17.5-20.1-24.4c-0.3-0.3-0.6-0.6-0.8-1c-0.4-0.5-0.8-0.9-1.2-1.4c-5.6,0.2-11-0.2-15.8-1c-5.3-0.9-11.3-2.2-18.3-3.8
			c-34.6-7.8-92.5-20.9-217.9-15.1c-89.2,4.1-136.2,25.9-185.9,48.9c-33.7,15.6-68.5,31.7-117.5,42c-32.6,6.8-63,6.6-90.5-0.6
			c0.1,0.6,0.1,1.1,0.2,1.7C950,1266.6,950.1,1266.8,950.1,1267z"/>
    <path fill="#999651" d="M631.2,1027.6c-0.1,0.2-0.1,0.5-0.2,0.7c-0.3,1-0.5,2.1-0.8,3.1c-0.1,0.5-0.3,1-0.4,1.6
			c-0.3,1.1-0.5,2.1-0.8,3.2c-0.2,1-0.4,1.9-0.7,2.9c0,0.1-0.1,0.3-0.1,0.4c-0.2,1-0.5,2-0.7,3.1c-0.3,1.2-0.5,2.5-0.8,3.7
			c-0.2,1-0.4,2-0.6,3c-0.1,0.7-0.3,1.5-0.4,2.2c-0.2,1.2-0.4,2.4-0.7,3.6c-0.1,0.6-0.2,1.2-0.3,1.8c-0.3,1.7-0.6,3.5-0.9,5.2
			c0,0.2-0.1,0.4-0.1,0.6c-0.2,1.1-0.4,2.3-0.5,3.4c-0.1,0.6-0.2,1.3-0.3,1.9c-0.1,0.6-0.2,1.3-0.3,1.9c-0.5,3.5-0.9,7.1-1.3,10.7
			c-0.1,1-0.2,2-0.3,3c-0.1,0.7-0.1,1.4-0.2,2.1c-0.1,0.6-0.1,1.2-0.2,1.8c-0.3,3.3-0.5,6.6-0.7,9.9c0,0.7-0.1,1.5-0.1,2.2
			c-0.1,0.9-0.1,1.8-0.1,2.7c-0.1,1.3-0.1,2.6-0.2,3.9c0,0.1,0,0.2,0,0.4c-0.1,1.4-0.1,2.7-0.1,4.1c-0.6,27.4,2.2,57.1,10.8,87.5
			c14.3,50.4,76.5,220.8,277.5,296.1c60.3,22.6,128.3,34.7,202.3,35.9c-14.9-11.4-44.3-35.4-74.1-69.2c-25-28.3-45.4-57.8-60.8-87.7
			c-1.9-3.7-3.8-7.5-5.5-11.2c-0.5-1-0.9-1.9-1.3-2.9c-0.5-1.2-1.1-2.4-1.6-3.5c-1-2.2-1.9-4.3-2.8-6.5c-1-2.3-1.9-4.6-2.8-6.9
			c-0.3-0.8-0.7-1.7-1-2.5c-0.8-2.1-1.6-4.2-2.3-6.3c-0.3-0.9-0.6-1.8-0.9-2.6c-0.4-1.1-0.8-2.2-1.1-3.3c-0.3-0.9-0.6-1.8-0.9-2.6
			c-0.3-1.1-0.7-2.1-1-3.1c-0.3-0.8-0.5-1.6-0.8-2.4c-0.3-0.9-0.6-1.8-0.8-2.7c0-0.1,0-0.1-0.1-0.2c-0.3-1-0.6-2-0.9-3
			c-0.1-0.3-0.2-0.6-0.2-0.9c-0.3-1-0.6-2.1-0.9-3.1c-0.3-1.1-0.6-2.2-0.9-3.3c-0.2-0.9-0.4-1.7-0.7-2.6c-0.2-0.8-0.4-1.5-0.6-2.3
			c-0.2-0.6-0.3-1.2-0.4-1.8c-0.4-1.7-0.8-3.3-1.1-5c-0.2-0.7-0.3-1.4-0.4-2.2c-0.2-0.9-0.4-1.7-0.5-2.6c-0.2-1-0.4-1.9-0.6-2.9
			c-0.3-1.5-0.6-3.1-0.8-4.6c-0.1-0.6-0.2-1.3-0.3-1.9c-0.1-0.7-0.2-1.3-0.3-2c-0.1-0.9-0.3-1.7-0.4-2.5c-0.1-1-0.3-2.1-0.4-3.1
			c-0.2-1.1-0.3-2.3-0.4-3.4c0-0.1,0-0.2,0-0.3c-0.1-1-0.2-2.1-0.3-3.1c0-0.2,0-0.4-0.1-0.5c-0.1-1-0.2-2-0.3-2.9c0-0.1,0-0.1,0-0.2
			c-57.6-18.5-90.7-65.9-98-105.2c-3.9-21.3-3.6-41.9-3.3-60.1c0.4-28.1,0.8-50.3-14.1-61.4c-17-12.6-42.9,14.8-56.8,29.6
			c-6.7,7.1-9.7,10.3-12.5,10.3c0,0,0,0,0,0c-5.1,41.7-5.5,114.2,36,179.7l-6.8,4.3c-45.2-71.3-42.3-150.4-36.3-191.8
			c-2.2-7.1-3-19.8-2.3-34.5c0.1-1.7,0.2-3.6,0.3-5.6c1-14.7,2.7-39.2-9.5-52.1c-6.1-6.4-14.8-9.3-26.7-9.1
			c-27.7,0.6-40.4,13-51.6,24c-6.8,6.7-13.3,13.1-22.1,14.7c-0.3,0.8-0.5,1.6-0.8,2.4c-0.2,0.5-0.3,0.9-0.5,1.4
			c-0.3,0.8-0.5,1.6-0.7,2.4c-0.1,0.4-0.3,0.9-0.4,1.3c-0.1,0.4-0.3,0.9-0.4,1.3c-0.1,0.4-0.3,0.9-0.4,1.3c-0.2,0.6-0.3,1.2-0.5,1.8
			c-0.5,1.7-1,3.4-1.5,5.2c-0.1,0.2-0.1,0.4-0.2,0.7C632,1024.5,631.6,1026,631.2,1027.6z"/>
    <path fill="#B4202E" d="M614.3,1508.7c0.7,0.3,1.4,0.6,2.1,1c0.7,0.3,1.5,0.7,2.3,1c0.8,0.4,1.6,0.7,2.4,1.1c0,0,0.1,0,0.1,0.1
			c0.8,0.4,1.6,0.7,2.4,1.1c1.3,0.6,2.6,1.2,4,1.8c0.9,0.4,1.8,0.8,2.8,1.2c0.6,0.3,1.3,0.5,1.9,0.8c0.3,0.2,0.7,0.3,1,0.4
			c1.5,0.6,3,1.3,4.6,2c1.6,0.7,3.2,1.4,4.9,2c1.1,0.5,2.3,0.9,3.4,1.4c0.3,0.1,0.6,0.3,1,0.4c1.4,0.6,2.8,1.1,4.3,1.7
			c1.2,0.5,2.4,1,3.7,1.5c0.6,0.3,1.3,0.5,1.9,0.7c0.6,0.3,1.3,0.5,1.9,0.7c1.1,0.4,2.3,0.9,3.5,1.3c0.1,0.1,0.3,0.1,0.4,0.2
			c1.2,0.5,2.4,0.9,3.7,1.4c0.8,0.3,1.6,0.6,2.4,0.9c1.3,0.5,2.6,1,3.9,1.4c0.8,0.3,1.6,0.6,2.4,0.9c1.4,0.5,2.8,1,4.3,1.6
			c1.4,0.5,2.9,1,4.4,1.5c0,0,0.1,0,0.1,0.1c1.4,0.5,2.9,1,4.4,1.5c0.9,0.3,1.7,0.6,2.6,0.9c2,0.7,4,1.4,6,2
			c1.8,0.6,3.6,1.2,5.4,1.8c1.6,0.5,3.2,1,4.9,1.6c0.3,0.1,0.5,0.2,0.8,0.3c2.1,0.7,4.3,1.4,6.5,2c1.8,0.6,3.5,1.1,5.3,1.6
			c0.9,0.3,1.7,0.5,2.6,0.8c4,1.2,8,2.4,12.1,3.5c0.4,0.1,0.7,0.2,1.1,0.3c1.5,0.4,3,0.8,4.5,1.3c0.9,0.3,1.9,0.5,2.8,0.8
			c1.2,0.3,2.4,0.7,3.6,1c2.8,0.7,5.6,1.5,8.4,2.2c3.6,0.9,7.2,1.8,10.9,2.7c5.1,1.2,10.2,2.4,15.5,3.6c1.9,0.4,3.9,0.9,5.8,1.3
			c2.2,0.5,4.4,0.9,6.6,1.4c1.1,0.2,2.1,0.4,3.2,0.6c0.8,0.2,1.7,0.3,2.6,0.5c1,0.2,2.1,0.4,3.1,0.6c2.4,0.5,4.8,0.9,7.1,1.3
			c1.1,0.2,2.2,0.4,3.2,0.6c1.1,0.2,2.2,0.4,3.3,0.6c2.2,0.4,4.4,0.8,6.6,1.1c1.7,0.3,3.5,0.6,5.2,0.9c2.7,0.4,5.4,0.8,8.1,1.3
			c0.9,0.1,1.8,0.3,2.7,0.4c0.7,0.1,1.5,0.2,2.2,0.3c1.1,0.2,2.2,0.3,3.3,0.5c2.2,0.3,4.4,0.6,6.6,0.9c1.8,0.2,3.7,0.5,5.5,0.7
			c6.9,0.8,13.9,1.6,20.9,2.2c1.2,0.1,2.3,0.2,3.5,0.3c1.2,0.1,2.4,0.2,3.5,0.3c1.2,0.1,2.4,0.2,3.5,0.3c1.3,0.1,2.5,0.2,3.8,0.3
			c3.5,0.3,7,0.5,10.5,0.7h0c1.2,0.1,2.4,0.1,3.6,0.2c3.6,0.2,7.2,0.3,10.9,0.5c1.2,0,2.4,0.1,3.6,0.1c1.2,0,2.4,0.1,3.7,0.1
			c1.2,0,2.4,0.1,3.6,0.1c1.3,0,2.7,0,4,0c0.8,0,1.6,0,2.5,0c-0.7-1.2-1.3-2.4-2-3.6c-0.3-0.6-0.6-1.2-0.9-1.7
			c-0.5-0.9-0.9-1.7-1.3-2.6c-0.5-1.1-1.1-2.1-1.6-3.2c-0.1-0.1-0.1-0.2-0.2-0.4c-0.4-0.8-0.8-1.6-1.2-2.4c-0.7-1.4-1.4-2.8-2-4.2
			c-0.5-1-0.9-2-1.4-3c-1.9-4.2-3.7-8.3-5.3-12.3c-0.4-0.9-0.8-1.9-1.1-2.8c-0.4-0.9-0.7-1.8-1.1-2.8c0,0,0-0.1,0-0.1
			c-0.3-0.9-0.7-1.8-1-2.7c-0.4-1-0.7-1.9-1.1-2.9c-0.3-0.8-0.6-1.6-0.9-2.5c-0.3-0.9-0.6-1.7-0.9-2.6c-0.2-0.4-0.3-0.9-0.5-1.3
			c-0.3-0.9-0.6-1.7-0.9-2.5c-0.1-0.4-0.3-0.8-0.4-1.2c-0.1-0.4-0.3-0.8-0.4-1.2c-0.3-0.8-0.5-1.6-0.8-2.4c-0.1-0.2-0.1-0.3-0.2-0.5
			c-0.2-0.6-0.4-1.3-0.6-1.9c-0.5-1.5-0.9-3.1-1.4-4.5c-0.1-0.4-0.2-0.7-0.3-1.1c-0.3-1.1-0.6-2.1-0.9-3.2c-0.1-0.5-0.3-1-0.4-1.5
			c-0.1-0.4-0.2-0.7-0.3-1.1c-0.4-1.5-0.8-2.9-1.1-4.2c-0.2-0.6-0.3-1.2-0.4-1.8c-0.3-1.2-0.6-2.3-0.8-3.3c-0.2-0.1-0.3-0.1-0.5-0.2
			c-0.8-0.3-1.7-0.6-2.5-1c-0.8-0.3-1.6-0.6-2.4-0.9c-1-0.4-2-0.8-3-1.2c-4-1.6-7.9-3.2-11.8-4.9c-1.2-0.5-2.3-1-3.5-1.5
			c-1.2-0.5-2.4-1.1-3.6-1.6c-1-0.5-2.1-1-3.1-1.4c-3.8-1.7-7.6-3.5-11.3-5.3c-1.1-0.5-2.2-1.1-3.3-1.6c-1.2-0.6-2.3-1.2-3.5-1.8
			c-1.2-0.6-2.3-1.2-3.5-1.8c-0.9-0.5-1.8-1-2.8-1.4c-1.4-0.7-2.7-1.4-4.1-2.2c-1.1-0.6-2.3-1.2-3.4-1.9c-1.1-0.6-2.3-1.3-3.4-1.9
			c-1.1-0.6-2.2-1.2-3.3-1.9c-5.6-3.2-11.2-6.5-16.6-10c-1-0.7-2.1-1.3-3.1-2c-4.6-3-9.2-6-13.7-9.1c-1-0.7-2.1-1.4-3.1-2.2
			c-1-0.7-2.1-1.5-3.1-2.2c-3.2-2.3-6.4-4.6-9.5-7c-0.9-0.7-1.8-1.4-2.7-2c-2-1.5-4-3.1-6-4.7c-1-0.8-2-1.6-2.9-2.4
			c-2.1-1.7-4.1-3.4-6.2-5.1c-0.8-0.7-1.7-1.4-2.5-2.2c-1.9-1.6-3.8-3.3-5.7-5s-3.8-3.4-5.6-5.1c-0.9-0.9-1.9-1.7-2.8-2.6
			c-1-0.9-2-1.8-3-2.8c-1.7-1.6-3.3-3.2-4.9-4.8c-0.1-0.1-0.2-0.2-0.3-0.3c-0.9-0.9-1.8-1.7-2.6-2.6c-2.6-2.6-5.2-5.3-7.8-8
			c-3.6-3.7-7.1-7.5-10.6-11.4c-1.7-1.9-3.3-3.7-5-5.6c-0.9-1-1.7-2-2.6-3c-1.7-1.9-3.3-3.9-4.9-5.9c-0.8-1-1.6-2-2.4-3
			c-51.7-63.8-74.7-127.4-83.8-159.5c-8.8-31.1-11.7-61.5-11.1-89.5c0-1.5,0.1-2.9,0.1-4.4c0-0.7,0.1-1.5,0.1-2.2c0-0.2,0-0.4,0-0.5
			c0.1-1.2,0.1-2.4,0.2-3.6c0.3-5,0.6-10,1.1-14.9c0.1-0.7,0.1-1.4,0.2-2c0.3-3.6,0.8-7.1,1.2-10.6c0.1-0.5,0.1-1,0.2-1.5
			c0.4-3.3,0.9-6.6,1.4-9.8c0.2-1.2,0.4-2.4,0.6-3.6c0.1-0.6,0.2-1.3,0.3-1.9c0.1-0.6,0.2-1.2,0.3-1.8c0.8-4.6,1.7-9.1,2.6-13.4
			c0.1-0.6,0.3-1.2,0.4-1.8c0.3-1.2,0.5-2.3,0.8-3.5c0.2-0.7,0.3-1.5,0.5-2.2c0.4-1.6,0.8-3.3,1.2-4.8c0.1-0.5,0.3-1.1,0.4-1.6
			c1.5-5.9,3-11.4,4.6-16.4c0.1-0.5,0.3-0.9,0.4-1.4c0.1-0.5,0.3-0.9,0.4-1.4c0.3-0.9,0.6-1.8,0.8-2.7c0.2-0.6,0.4-1.2,0.6-1.9
			l0.2-2.1c0.1-1.5,3.2-38.4,13.8-65.6c5.3-13.6,5.2-25.3-0.3-29.8c-3.6-3-15.9-7.5-52.4,15.1c-31,19.2-66.9,65.5-93.8,120.8
			c-30.4,62.7-44.9,126.6-40.9,180c6.5,85.9,57.6,175.8,151.8,267.4l1.1,1.1l0.1,1.5c0,0.1,0.5,5.7,1.8,15.7
			c0.3,0.1,0.6,0.3,0.9,0.5C613,1508,613.6,1508.3,614.3,1508.7C614.3,1508.7,614.3,1508.7,614.3,1508.7z"/>
    <path fill="#DE832C" d="M939.5,2136.1c1.2-0.3,2.4-0.5,3.6-0.7c1-0.2,2-0.4,3-0.5c0.9-0.2,1.9-0.3,2.8-0.5c2-0.3,3.9-0.6,6-0.9
			c0.8-0.1,1.5-0.2,2.3-0.3c0.8-0.1,1.7-0.2,2.5-0.3c0.7-0.1,1.3-0.2,2-0.3c2.5-0.3,5-0.6,7.5-0.8c0.4,0,0.7-0.1,1.1-0.1
			c2.8-0.3,5.7-0.5,8.6-0.7c0.4,0,0.8-0.1,1.2-0.1c3.7-0.3,7.5-0.5,11.3-0.6c0.9,0,1.8-0.1,2.7-0.1c1,0,2.1-0.1,3.2-0.1
			c1,0,2.1-0.1,3.2-0.1c2.7-0.1,5.5-0.1,8.3-0.1c3.3,0,6.6,0,9.9,0.1c1.9,0,3.8,0.1,5.7,0.2c1.5,0,3,0.1,4.5,0.2
			c3.4,0.1,6.9,0.3,10.4,0.5c1.9,0.1,3.8,0.2,5.6,0.4c1.3,0.1,2.5,0.2,3.8,0.3c1.1,0.1,2.2,0.2,3.3,0.3c0.2,0,0.5,0,0.7,0.1
			c0.6,0,1.3,0.1,1.9,0.2c0.4,0,0.8,0.1,1.2,0.1c1,0.1,2.1,0.2,3.1,0.3c0.3,0,0.5,0.1,0.8,0.1c0.7,0.1,1.3,0.1,2,0.2
			c0.8,0.1,1.7,0.2,2.5,0.3c1.3,0.1,2.6,0.3,3.9,0.4c1.6,0.2,3.3,0.4,4.9,0.5c1.3,0.1,2.7,0.3,4,0.5c0.9,0.1,1.9,0.2,2.8,0.4
			c0.2,0,0.4,0.1,0.7,0.1c0.9,0.1,1.7,0.2,2.6,0.3c3.6,0.5,7.2,1,10.8,1.5c55.4,8.1,115,23.4,168,43.1
			c100.3,37.4,222.1,42.1,310.3,12c87.6-29.9,189.4-3,218.5,6c47.1,14.5,99.8,4.7,171-31.7c39.5-20.2,80.2-22.2,119.6-24.1
			c3.3-0.2,6.5-0.3,9.7-0.5c1.1-0.1,2.2-0.1,3.2-0.2l3.2-0.2c0.8,0,1.5-0.1,2.3-0.1c3.7-0.2,7.3-0.5,10.9-0.8
			c1.1-0.1,2.2-0.2,3.4-0.3c1.2-0.1,2.3-0.2,3.5-0.3c0.9-0.1,1.7-0.2,2.6-0.3c1.1-0.1,2.1-0.2,3.1-0.4c2.8-0.3,5.6-0.7,8.4-1.1
			c1.9-0.3,3.8-0.6,5.7-1c0.8-0.2,1.7-0.3,2.5-0.5c1.1-0.2,2.2-0.5,3.3-0.7c0.4-0.1,0.7-0.2,1.1-0.3c0.6-0.1,1.2-0.3,1.7-0.4
			c0.3-0.1,0.6-0.1,0.9-0.2c0.6-0.1,1.3-0.3,1.9-0.5c0.9-0.2,1.8-0.5,2.7-0.7c0.1,0,0.3-0.1,0.4-0.1c1.8-0.5,3.5-1,5.2-1.6
			c0.4-0.1,0.7-0.2,1.1-0.4c0.6-0.2,1.1-0.4,1.6-0.6c0.3-0.1,0.5-0.2,0.7-0.3c0.7-0.3,1.4-0.5,2.1-0.8c0.2-0.1,0.4-0.2,0.7-0.3
			c0.7-0.3,1.3-0.5,2-0.8c0.1-0.1,0.3-0.1,0.4-0.1c0.7-0.3,1.4-0.6,2.1-0.9c0.1,0,0.1-0.1,0.2-0.1c1.7-0.8,3.4-1.6,5.1-2.4
			c0.4-0.2,0.8-0.4,1.2-0.6c0.4-0.2,0.9-0.5,1.3-0.7c0.3-0.3,0.6-0.5,0.9-0.8c34.2-30.6,81.6-85.2,115.5-172.4
			c-0.4,0.1-0.8,0.1-1.2,0.2c-0.8,0.1-1.6,0.3-2.5,0.4c-0.6,0.1-1.1,0.2-1.7,0.2c-1.8,0.3-3.5,0.5-5.3,0.7c-3.5,0.5-7,0.9-10.5,1.3
			c-1.7,0.2-3.5,0.4-5.2,0.6c-1.1,0.1-2.1,0.2-3.1,0.3c-3.4,0.3-6.9,0.6-10.3,0.9c-1,0.1-2.1,0.2-3.1,0.2c-5.5,0.4-11,0.7-16.4,1
			c-0.4,0-0.8,0-1.1,0.1c-0.9,0-1.7,0.1-2.6,0.1c-1.2,0-2.4,0.1-3.6,0.1c-0.1,0-0.2,0-0.3,0c-1.4,0-2.8,0.1-4.3,0.1
			c-1.8,0-3.6,0.1-5.3,0.1c-1.8,0-3.6,0-5.3,0c-3.4,0-6.8,0-10.2-0.1c-0.5,0-1,0-1.4,0s-0.9,0-1.4,0c-1.3,0-2.6-0.1-3.9-0.1
			c-1.4,0-2.8-0.1-4.3-0.1c-1,0-2-0.1-3.1-0.1c-0.9,0-1.8-0.1-2.7-0.1c-0.7,0-1.5-0.1-2.2-0.1c-0.6,0-1.3-0.1-1.9-0.1
			c-0.5,0-1.1-0.1-1.6-0.1c-0.3,0-0.6,0-0.9-0.1c-1-0.1-2-0.1-3-0.2c-2.3-0.2-4.5-0.3-6.7-0.5c-1.1-0.1-2.1-0.2-3.2-0.3
			c-3.7-0.3-7.4-0.7-11.1-1.1c-2.2-0.2-4.3-0.5-6.5-0.7c-7-0.8-13.9-1.8-20.6-2.9c-1.5-0.3-3.1-0.5-4.6-0.8
			c-1.3-0.2-2.6-0.4-3.9-0.7c-2.6-0.5-5.2-0.9-7.7-1.4c-1.3-0.2-2.6-0.5-3.8-0.7c-1.9-0.4-3.8-0.8-5.7-1.1c-5.4-1.1-10.8-2.3-16-3.6
			c-2.1-0.5-4.2-1-6.2-1.5c-1-0.3-2.1-0.5-3.1-0.8c-0.9-0.2-1.8-0.5-2.7-0.7c-0.9-0.2-1.8-0.5-2.7-0.7c-1.8-0.5-3.6-1-5.3-1.5
			s-3.5-1-5.3-1.5s-3.5-1-5.2-1.5c-1.2-0.4-2.5-0.7-3.7-1.1c-3-0.9-5.9-1.8-8.7-2.7c-0.9-0.3-1.8-0.6-2.7-0.9
			c-0.8-0.3-1.6-0.5-2.4-0.8c-1-0.3-2-0.6-2.9-1c-1.2-0.4-2.4-0.8-3.6-1.2c-1.3-0.5-2.6-0.9-3.9-1.4c-1.3-0.5-2.6-0.9-3.9-1.4
			c-1.5-0.6-3.1-1.1-4.6-1.7c-2.3-0.9-4.6-1.7-6.8-2.6c-1.5-0.6-2.9-1.1-4.3-1.7c0,0-0.1,0-0.1,0c-2.2-0.9-4.3-1.7-6.5-2.6
			c-1.5-0.6-3-1.2-4.4-1.8c-1.3-0.6-2.6-1.1-3.9-1.6c-1.4-0.6-2.7-1.2-4-1.8c-0.7-0.3-1.3-0.6-2-0.9c-0.8-0.4-1.6-0.7-2.5-1.1
			s-1.6-0.7-2.4-1.1c-1.6-0.7-3.2-1.5-4.7-2.2c-0.8-0.4-1.6-0.7-2.4-1.1c-1.7-0.8-3.3-1.6-4.9-2.3c-0.6-0.3-1.2-0.6-1.8-0.9
			c-1.2-0.6-2.3-1.1-3.5-1.7c-0.6-0.3-1.1-0.5-1.7-0.8c-0.6-0.3-1.1-0.6-1.7-0.8c-1.7-0.8-3.3-1.7-4.9-2.5c-0.4-0.2-0.8-0.4-1.2-0.6
			c-0.5-0.3-1.1-0.6-1.6-0.8c-1.7-0.9-3.3-1.8-4.9-2.6c-0.9-0.5-1.9-1-2.8-1.5c-6.3-3.4-11.8-6.6-16.7-9.5c-0.4-0.2-0.7-0.4-1.1-0.7
			c-2-1.2-3.8-2.3-5.5-3.4c-0.7-0.4-1.3-0.8-1.9-1.2c-0.2-0.1-0.3-0.2-0.5-0.3c-0.1,0.1-0.1,0.2-0.2,0.3c-1.9,2.2-3.8,4.4-5.7,6.6
			c-0.7,0.8-1.3,1.5-2,2.3c-0.9,1-1.7,2-2.6,2.9c-0.9,1-1.8,1.9-2.7,2.9c-2.5,2.7-5,5.4-7.6,8c-0.7,0.7-1.4,1.5-2.1,2.2
			c-1.3,1.3-2.7,2.7-4,4c-0.9,0.9-1.8,1.8-2.7,2.6c-3.6,3.4-7.2,6.8-10.9,10.1c-0.8,0.7-1.5,1.4-2.3,2c-0.6,0.6-1.3,1.1-1.9,1.7
			c-0.9,0.8-1.8,1.5-2.7,2.3c-1,0.9-2,1.7-3,2.6c-1.2,1-2.3,1.9-3.5,2.9c-0.9,0.7-1.8,1.4-2.6,2.2c-1,0.8-2.1,1.7-3.1,2.5
			c-0.9,0.8-1.9,1.5-2.8,2.2c-2.2,1.8-4.5,3.5-6.8,5.2c-1,0.8-2,1.5-3.1,2.3c-1.1,0.8-2.1,1.6-3.2,2.4c-1.1,0.8-2.2,1.6-3.3,2.3
			c-1.1,0.8-2.1,1.5-3.2,2.3c0,0-0.1,0.1-0.1,0.1c-1.1,0.8-2.2,1.5-3.3,2.2c-1,0.6-1.9,1.3-2.9,1.9c-0.3,0.2-0.5,0.4-0.8,0.5
			c-1,0.7-2,1.3-3,2c-0.7,0.5-1.4,0.9-2.2,1.4c-0.8,0.6-1.7,1.1-2.5,1.6c-0.7,0.5-1.5,0.9-2.2,1.4c-1.1,0.7-2.1,1.4-3.2,2
			c0,0-0.1,0-0.1,0.1c-1.1,0.7-2.3,1.4-3.4,2.1c0,0,0,0,0,0c-0.9,0.6-1.8,1.1-2.7,1.6c-1.4,0.8-2.8,1.7-4.2,2.5
			c-1.2,0.7-2.3,1.4-3.5,2c-1.2,0.7-2.3,1.3-3.5,2c-1.2,0.6-2.4,1.3-3.5,1.9c-1,0.5-2,1.1-2.9,1.6c-0.6,0.3-1.2,0.6-1.7,0.9
			c-1.2,0.6-2.3,1.2-3.5,1.8c-2.1,1.1-4.2,2.1-6.3,3.2c-0.9,0.5-1.8,0.9-2.7,1.3c-2.1,1-4.1,2-6.2,3c-0.9,0.4-1.8,0.9-2.7,1.3
			c-2.2,1-4.4,2-6.6,3c-1.2,0.5-2.5,1.1-3.7,1.6c-0.5,0.2-1.1,0.5-1.6,0.7c-0.9,0.4-1.8,0.8-2.7,1.2c-12.3,5.2-24.9,9.8-37.7,13.9
			c-2.6,0.8-5.1,1.6-7.7,2.4c-50,14.9-117.8,20.2-194,15.7c-3.2-0.2-6.4-0.4-9.6-0.6c-4.8-0.3-9.7-0.7-14.5-1.1
			c-3.3-0.3-6.5-0.6-9.8-0.9c-22.9-2.1-46.4-5.1-70.3-8.9c-55.2-8.8-109.7-21.8-157.8-37.6c-33.4-11-63.1-23.1-88.6-36
			c-3.6-1.9-7.2-3.7-10.7-5.6c-2.3-1.3-4.6-2.5-6.8-3.8c-2.1-1.2-4.2-2.4-6.2-3.6c-0.7-0.4-1.3-0.8-2-1.2c-2-1.2-4-2.4-5.9-3.7
			c-0.6-0.4-1.3-0.8-1.9-1.2c-1-0.7-2-1.3-3.1-2c-0.6-0.4-1.3-0.8-1.9-1.3c-1.9-1.3-3.8-2.5-5.6-3.8c-4.1-2.8-8.1-5.5-12-8.3
			c-1.4-1-2.8-2-4.1-2.9c-2.7-2-5.4-3.9-8-5.8c-1.3-1-2.6-1.9-3.9-2.9c-9.6-7.2-18.4-14.2-26.5-21.1c-1.1-0.9-2.1-1.8-3.2-2.8
			c-2.7-2.3-5.2-4.5-7.7-6.8c-1.5-1.4-3-2.7-4.4-4c-1-0.9-1.9-1.8-2.8-2.7c-0.9-0.9-1.9-1.8-2.8-2.6c-0.9-0.9-1.8-1.8-2.7-2.6
			s-1.8-1.7-2.6-2.6c-17.2-17.3-29.6-33.2-38-47.1c-0.8-1.4-1.6-2.8-2.4-4.1c-0.8-1.4-1.5-2.7-2.2-4c-0.7-1.3-1.3-2.6-1.9-3.9
			c-0.3-0.6-0.6-1.3-0.9-1.9c-0.5-1.2-1-2.3-1.4-3.4c-0.1-0.2-0.2-0.4-0.2-0.6c-0.4-1.1-0.8-2.2-1.2-3.3c-0.2-0.6-0.4-1.2-0.6-1.7
			c-0.5-1.6-1-3.2-1.3-4.7c-0.1-0.2-0.1-0.4-0.1-0.6c-0.1-0.2-0.1-0.4-0.1-0.6c-0.1-0.5-0.2-0.9-0.3-1.4c-0.1-0.5-0.2-0.9-0.3-1.4
			c-0.2-0.9-0.3-1.8-0.4-2.6c-0.1-0.8-0.2-1.7-0.2-2.5c-0.1-0.8-0.1-1.6-0.1-2.3c0-0.4,0-0.8,0-1.2c0-0.1,0-0.2,0-0.3
			c0-0.4,0.1-0.8,0.1-1.2c0,0,0,0,0,0c0-0.4,0.1-0.8,0.1-1.1c0.1-0.4,0.1-0.7,0.2-1.1c0-0.1,0-0.1,0-0.2c0-0.1,0-0.2,0.1-0.2
			c0.1-0.3,0.2-0.6,0.2-0.9c0.1-0.4,0.3-0.9,0.4-1.3c0.2-0.4,0.4-0.8,0.6-1.2c0.2-0.4,0.4-0.7,0.7-1.1s0.5-0.6,0.8-1
			c0.3-0.3,0.6-0.6,0.9-0.9c1.4-1.4,2.8-2.4,4.3-3.3c0.9-0.5,1.8-0.9,2.6-1.3c0.3-0.1,0.6-0.2,0.9-0.3c0.3-0.1,0.6-0.2,0.9-0.3
			c0.6-0.2,1.2-0.3,1.8-0.4c0,0,0,0,0,0c0.3,0,0.5-0.1,0.8-0.1c0.1,0,0.1,0,0.2,0c0.3,0,0.5-0.1,0.8-0.1c0.3,0,0.6,0,0.9-0.1
			c0.3,0,0.6,0,0.8,0c0.3,0,0.6,0,0.8,0c0.3,0,0.6,0,0.8,0c0.7,0.1,1.3,0.1,2,0.2c0.6,0.1,1.1,0.2,1.7,0.3c0.5,0.1,1.1,0.3,1.6,0.4
			c0.2,0.1,0.4,0.1,0.7,0.2c1.3,0.4,2.4,1,3.4,1.5l25.7,9.9c19.3,7.4,42.9,9.8,52.1,7.3l0.3-0.1c1.2-0.4,1.9-0.7,2.2-1
			c-1.6-3.6-15.2-16.2-29.6-29.6c-25.9-24-65-60.2-99.5-102.5c-3.9-4.8-7.7-9.8-11.4-14.9c-0.5-0.6-0.9-1.3-1.4-1.9
			c-0.8-1.1-1.5-2.1-2.3-3.2c-0.6-0.9-1.2-1.7-1.8-2.6c-1.8-2.6-3.5-5.3-5.2-7.9c-0.6-0.9-1.1-1.8-1.7-2.7c-0.5-0.9-1.1-1.7-1.6-2.6
			c-0.4-0.7-0.9-1.4-1.3-2.1c-0.5-0.9-1-1.7-1.5-2.6c-0.2-0.3-0.3-0.6-0.5-0.9c-12.7,0-25.4-0.4-38.2-1.1c-1.2-0.1-2.4-0.1-3.6-0.2
			c-1.7-0.1-3.5-0.2-5.2-0.3c-2.8-0.2-5.6-0.4-8.4-0.6c-1.3-0.1-2.7-0.2-4-0.3c-3.1-0.3-6.2-0.6-9.2-0.9
			c-18.2-1.8-36.6-4.3-55.1-7.6c-3.5-0.6-7.1-1.3-10.7-1.9c-1-0.2-2.1-0.4-3.1-0.6c-5.3-1-10.7-2.1-16-3.3
			c-7.4-1.6-14.9-3.3-22.3-5.1c-3.9-0.9-7.7-1.9-11.6-2.9c-7.2-1.9-14.5-3.9-21.8-5.9c-4.1-1.2-8.2-2.4-12.2-3.6
			c-1.3-0.4-2.6-0.8-3.9-1.2c-5.8-1.8-11.4-3.6-16.9-5.4c-0.7-0.3-1.5-0.5-2.2-0.7c-0.8-0.3-1.6-0.5-2.4-0.8c-2-0.7-3.9-1.3-5.8-2
			c-0.1,0-0.3-0.1-0.4-0.1c-2.8-1-5.6-2-8.3-2.9c-0.9-0.3-1.8-0.6-2.7-1c-1.1-0.4-2.2-0.8-3.3-1.2c-8.6-3.1-16.6-6.2-23.9-9.1
			c-1.1-0.4-2.2-0.9-3.2-1.3c-2.4-1-4.8-1.9-7.1-2.9c-0.6-0.2-1.1-0.5-1.7-0.7c-8.9-3.7-16.5-7.1-22.8-10
			c7.6,52.9,30.7,173.4,94,294.4c57.6,110.1,143.9,231.5,231.1,325.4C938.3,2136.4,938.9,2136.2,939.5,2136.1z"/>
    <path d="M2735.6,2179.5c-1.4-0.4-142.6-39.1-238.1-38.1c-34.3,0.4-61.6-5.6-90.5-11.9c-49.8-10.9-106.1-23.2-216.1-9.2
			c34.4-33,78.4-87.7,109.9-171.2h0l0.8-2.2c0.4-1.1,0.8-2.1,1.2-3.2l1.2-3.3l-0.1,0c5.8-16,11-32.8,15.5-49.9
			c28.7-109.3,42.1-203.2,42.3-295.4c0.2-92.4-13.7-185.4-42.4-284.2c-7.9-27.3-16.8-54.5-26.5-80.9h0l-1.5-4.2l-0.6-1.7l-0.6-1.7h0
			c-17.1-45.6-36.9-89.9-58.9-131.8c-0.9-1.8-1.8-3.5-2.8-5.3l-1.3-2.4h0c-12.8-23.9-26.3-47-40.3-68.9
			c49.6-5.3,100.6-19.8,151.6-43.1c44.8-20.5,88.7-47.4,130.6-79.8c36.6-28.4,67.5-58,89.8-83.5c22.4-25.6,36.2-47.1,38.6-59.4
			c4.8-24.3-3.5-47.2-21.4-59.8c-15.6-10.9-34.8-11.4-51.6-1.4c-33.2,19.9-114.5,38.4-174.8,19.6c-36.5-11.4-71.5-20.2-95.3-25.9
			c-3.3-39.1-12.3-76-26.7-109.7c-16.4-38.5-39.5-71.7-68.5-98.5c-53.5-49.5-128.6-80-211.3-85.8c-42.2-3-85,0.5-127.4,10.3
			c-44.5,10.3-87.6,27.5-128,51c-166.9,97.1-161.2,251.1-142.9,334.3c14.1,64.4,36.4,97.7,58,130c6.1,9.2,12,17.9,17.5,27.2
			c2.3,3.8,4.7,7.9,7.4,12.2c3.1,5.1,6.3,10.4,9.7,16c0.5,0.8,1,1.6,1.4,2.4l0.4,0.7c25.7,43.5,53.2,99.4,39.7,146.6
			c-3.8,13.3-9.7,25.1-17.6,34.9v0c-0.4,0.5-0.7,0.9-1.1,1.3c-22.4,26.8-52.9,31.8-66.4,32.7c-0.4,0-0.9,0-1.3,0.1
			c-5.7,0.3-11.3,0-16.1-0.8c-5-0.8-11-2.2-17.8-3.7c-35-7.9-93.6-21.1-220-15.3c-90.8,4.2-140.6,27.3-188.9,49.6
			c-33.3,15.4-67.7,31.3-115.8,41.5c-33.5,7-64.5,6.4-92.2-2c-56-16.9-88.1-62.3-95-99.8c-3.8-20.5-3.5-40.7-3.2-58.5
			c0.5-29.2,0.8-54.4-17.4-67.9c-22.7-16.8-51.8,14-67.3,30.5c-2.1,2.2-4.3,4.6-5.9,6.2c-2-5.9-2.8-18.2-2.1-32.3
			c0.1-1.6,0.2-3.5,0.3-5.5c1.1-16,3-42.7-11.7-58.2c-7.6-8-18.6-11.9-32.7-11.6c-30.9,0.6-45.4,14.8-57.1,26.3
			c-5.6,5.5-10.3,10.1-15.7,12c1.2-11.1,4.8-37.9,12.7-58.2c6.7-17.3,5.8-31.9-2.6-38.8c-10.9-9-31.6-4.2-61.7,14.5
			c-32.2,20-69.3,67.5-96.7,124.1c-31,63.9-45.8,129.3-41.6,184.1c4,52.6,24.3,107,60.3,161.6c23.9,36.3,54.3,72.3,92.9,109.9
			c0.2,1.7,0.5,4.9,1,9.4l-0.1,0l0.6,4.3l0.4,3.1c0.1,0.7,0.2,1.4,0.3,2.1c6.9,50.3,29.5,175.9,95.6,302.1
			c57.2,109.4,142.6,229.9,229.2,323.8c-4.7,1.2-9.3,2.5-13.6,4c-80.1,26.7-149.7,33.6-287.6-6c-90.8-26.2-119.5-14.4-155.8,0.6
			c-16.6,6.8-35.4,14.6-62.9,19.3c-84.6,14.6-141.1-10.5-141.7-10.7l-5.7-2.6v471.2h2477v-434L2735.6,2179.5z M2249.7,783.6
			c0.2-1.1,0.4-2.2,0.6-3.3c0.1-0.4,0.1-0.7,0.2-1.1c0.2-0.9,0.3-1.8,0.4-2.7c0.1-0.5,0.2-1,0.3-1.5c0.2-1,0.3-2,0.5-3
			c0.4-2.6,0.8-5.2,1.1-7.9c0.4-2.8,0.7-5.6,1-8.4c0,0,0-0.1,0-0.1c0.2-1.4,0.3-2.9,0.4-4.3c0.2-2.4,0.4-4.8,0.6-7.2
			c0.1-1.2,0.2-2.4,0.3-3.7c0.1-0.8,0.1-1.6,0.2-2.4c0.1-1.2,0.1-2.3,0.2-3.5c0.1-1,0.1-1.9,0.1-2.8c0.2-3.6,0.3-7.3,0.3-11
			c0-0.8,0-1.6,0-2.4c0-1.3,0-2.5,0-3.8c0-1.3,0-2.5,0-3.8c0-1.3,0-2.6-0.1-3.9c0-1.3-0.1-2.6-0.1-3.9c0-1.1-0.1-2.2-0.1-3.3
			c-0.1-1.4-0.1-2.8-0.2-4.3c0-0.1,0-0.1,0-0.2c-0.1-1.5-0.2-3-0.3-4.4c0-0.6-0.1-1.2-0.1-1.7c23.6,5.6,57.2,14.2,92.3,25.1
			c18.8,5.9,39.2,8.3,59.7,8.3c48.4,0,96.7-13.8,121.6-28.7c13.9-8.4,29.9-8,42.8,1.1c12.4,8.7,19.4,23.4,19.4,39.8
			c0,3.9-0.4,7.9-1.2,11.9c-3.9,20.2-49.8,79.5-125.4,138.2c-63.7,49.4-164.1,110.4-282.1,121.8c-1.8-2.7-3.5-5.3-5.1-7.7
			c-0.4-0.6-0.8-1.2-1.2-1.8c-3.4-5-6.5-9.5-9.3-13.5c-0.5-0.8-1-1.5-1.5-2.2c-0.6-0.8-1.1-1.6-1.7-2.4c-0.7-1-1.4-1.9-2-2.8
			c-0.4-0.5-0.7-1-1.1-1.5c-0.3-0.5-0.7-0.9-1-1.4c-0.9-1.2-1.7-2.3-2.4-3.4l-1.9-2.7c-7.1-9.9-2.2-15.5,14.2-31.5
			c17.9-17.5,44.8-43.9,65.3-96.7c0.5-1.3,1-2.7,1.5-4c0.5-1.3,1-2.6,1.4-4c0.4-1.2,0.8-2.4,1.2-3.6c0.2-0.4,0.3-0.8,0.4-1.3
			c0.3-0.7,0.5-1.5,0.7-2.2c0.2-0.6,0.4-1.3,0.6-1.9c0.2-0.7,0.5-1.4,0.7-2.2c1-3.2,1.9-6.4,2.8-9.7c0.4-1.4,0.8-2.8,1.1-4.3
			c0.3-1,0.5-2,0.8-3c0.3-1.3,0.6-2.5,0.9-3.8c0.3-1.3,0.6-2.5,0.9-3.8c0.6-2.5,1.1-5.1,1.6-7.7
			C2249.2,786.2,2249.4,784.9,2249.7,783.6z M1656.7,970c-0.8-0.6-1.6-1.1-2.3-1.6c-0.4-0.3-0.8-0.6-1.2-0.8
			c-1.2-0.8-2.2-1.6-3.2-2.3c-3.7-6.3-7.3-12.1-10.7-17.8c-2.6-4.3-5.1-8.3-7.3-12.1c-5.7-9.5-11.5-18.3-17.7-27.6
			c-21.1-31.6-43-64.3-56.8-127.3c-17.8-81-23.4-231.1,139.1-325.7c153.6-89.4,345.9-79.5,457.3,23.5
			c53.4,49.4,86.4,122.5,92.9,205.9c4.2,53.9-2.9,107.8-19.9,151.7c-19.8,51.2-46.1,76.9-63.4,93.9c-11.6,11.3-20.7,20.3-19.7,30.9
			c0,0.2,0,0.3,0.1,0.5c0.1,0.6,0.2,1.3,0.4,1.9c0.1,0.2,0.1,0.4,0.2,0.7c0.3,1.1,0.8,2.3,1.3,3.5c0.1,0.2,0.2,0.4,0.3,0.6
			c0,0.1,0.1,0.2,0.1,0.2c0.2,0.4,0.4,0.7,0.6,1.1c0.5,0.8,1,1.7,1.6,2.5l1.9,2.7c5.6,7.8,14.9,20.8,26.4,38.5l1.3,2
			c14,21.8,27.7,44.9,40.6,68.9c-1.9,0.2-3.7,0.3-5.5,0.5c-0.3,0-0.6,0.1-0.8,0.1c-0.9,0.1-1.9,0.2-2.8,0.3c-1.4,0.1-2.7,0.3-4,0.4
			c-1.3,0.1-2.7,0.2-4,0.3c-4.9,0.4-9.7,0.8-14.6,1.1c-1.8,0.1-3.7,0.3-5.5,0.4c-4,0.3-8.1,0.5-12.1,0.7c-1.8,0.1-3.6,0.2-5.3,0.3
			c-2.5,0.1-5,0.3-7.5,0.4c-2.5,0.1-5,0.2-7.5,0.3c-1.4,0.1-2.9,0.1-4.3,0.2c-0.9,0-1.8,0.1-2.7,0.1c-1.4,0-2.8,0.1-4.2,0.1
			c-2.6,0.1-5.2,0.1-7.7,0.2c-2.6,0.1-5.1,0.1-7.7,0.2c-0.4,0-0.9,0-1.3,0c-1.5,0-3.1,0-4.6,0.1c-0.3,0-0.7,0-1,0
			c-1.8,0-3.6,0-5.4,0c-1,0-2,0-3,0c-4.5,0-9,0-13.5,0c-3.6,0-7.3-0.1-10.9-0.2c-2.5,0-5-0.1-7.5-0.2c-2.1-0.1-4.2-0.1-6.3-0.2
			c-2.1-0.1-4.2-0.1-6.3-0.2c-2.2-0.1-4.4-0.2-6.6-0.3c-1.3,0-2.5-0.1-3.8-0.2c-5.8-0.3-11.5-0.6-17.2-1c0,0,0,0,0,0
			c-2.9-0.2-5.7-0.4-8.6-0.6c-1.5-0.1-3-0.2-4.6-0.4c-1.3-0.1-2.6-0.2-4-0.3c-1.9-0.2-3.8-0.3-5.7-0.5c0,0,0,0,0,0
			c-6-0.5-12-1.1-18-1.8h0c-4.5-0.5-8.9-1-13.4-1.5h0c-2.2-0.3-4.4-0.6-6.7-0.8c-2.2-0.3-4.4-0.6-6.6-0.9c-1.5-0.2-2.9-0.4-4.4-0.6
			c-2.9-0.4-5.9-0.9-8.8-1.3c-1.5-0.2-2.9-0.4-4.4-0.7c-2.9-0.5-5.8-0.9-8.7-1.4c-1.5-0.2-2.9-0.5-4.4-0.7c-2.9-0.5-5.8-1-8.7-1.5
			c-1.4-0.3-2.9-0.5-4.3-0.8c-2.9-0.5-5.8-1.1-8.6-1.6c-1.7-0.3-3.3-0.7-5-1c-0.2,0-0.4-0.1-0.6-0.1c-1-0.2-2-0.4-3-0.6
			c-1.4-0.3-2.8-0.6-4.3-0.9c-1.1-0.2-2.2-0.5-3.4-0.7c-0.9-0.2-1.7-0.4-2.6-0.6c-2.6-0.6-5.2-1.1-7.8-1.8c-1.6-0.4-3.2-0.7-4.8-1.1
			c-2.3-0.5-4.6-1.1-6.9-1.7c-2.8-0.7-5.6-1.4-8.4-2.1c-2.1-0.5-4.2-1.1-6.3-1.6c-2.5-0.6-5-1.3-7.5-2c-1.2-0.3-2.3-0.6-3.5-1
			c-1.2-0.3-2.3-0.7-3.5-1c-2.1-0.6-4.1-1.2-6.2-1.8c-2.1-0.6-4.1-1.2-6.2-1.8c-2.1-0.6-4.1-1.2-6.1-1.9c-2-0.6-4.1-1.3-6.1-1.9
			c-7.5-2.4-14.7-4.8-21.7-7.2c-1.4-0.5-2.8-1-4.2-1.5c-8.1-2.9-15.9-5.8-23.4-8.8c-1.3-0.5-2.5-1-3.8-1.5c-6.2-2.5-12.2-5-18-7.5
			c-2.3-1-4.6-2-6.8-3c-2.2-1-4.4-2-6.6-3c-1.1-0.5-2.2-1-3.2-1.5c-1.1-0.5-2.1-1-3.2-1.5c-1-0.5-2.1-1-3.1-1.5c-1-0.5-2-1-3.1-1.5
			c-0.8-0.4-1.6-0.8-2.4-1.2c-0.7-0.4-1.4-0.7-2.1-1.1c-7.6-3.8-14.7-7.5-21.2-11c-0.9-0.5-1.9-1-2.8-1.5c-0.7-0.4-1.4-0.7-2-1.1
			c-1.3-0.7-2.7-1.5-3.9-2.2c-0.7-0.4-1.3-0.7-1.9-1.1c-0.6-0.4-1.3-0.7-1.9-1.1c-0.6-0.4-1.2-0.7-1.8-1.1c-1.2-0.7-2.4-1.4-3.6-2.1
			c-0.7-0.4-1.4-0.8-2.1-1.3c-9.3-5.6-16.9-10.6-22.9-14.7C1657.2,970.4,1656.9,970.2,1656.7,970z M1691.4,1119.5
			c12.8-44.8-8.4-95.6-32-138v0c0.3,0.2,0.6,0.4,0.8,0.6c2.7,1.8,5.7,3.7,8.9,5.7c1,0.6,2.1,1.3,3.2,2c0.6,0.3,1.1,0.7,1.7,1
			c0.6,0.4,1.2,0.7,1.7,1.1c1,0.6,2.1,1.2,3.1,1.9c0.9,0.5,1.8,1.1,2.8,1.6c6,3.5,12.6,7.2,19.8,11.1c1.8,1,3.6,1.9,5.5,2.9
			c1.9,1,3.8,2,5.7,2.9c2.9,1.5,5.9,3,9,4.5c2.1,1,4.1,2,6.3,3c1.2,0.6,2.4,1.1,3.6,1.7c3.6,1.7,7.4,3.4,11.2,5.1
			c0.5,0.2,0.9,0.4,1.4,0.6c0.7,0.3,1.5,0.7,2.3,1c1.5,0.7,3,1.3,4.6,2c1.4,0.6,2.9,1.2,4.3,1.8c1.2,0.5,2.3,1,3.5,1.5
			c1.3,0.6,2.7,1.1,4.1,1.7c2.4,1,4.9,2,7.4,3c4,1.6,8.1,3.2,12.3,4.8c1.2,0.4,2.4,0.9,3.6,1.3c6.2,2.3,12.6,4.6,19.2,6.8
			c1,0.3,2,0.7,3,1c2,0.7,4,1.3,6.1,2c2,0.7,4.1,1.3,6.2,2c2.7,0.9,5.5,1.7,8.2,2.6c2.8,0.8,5.5,1.7,8.3,2.5c2.4,0.7,4.7,1.4,7.1,2
			c1.4,0.4,2.9,0.8,4.3,1.2c4.5,1.3,9.1,2.5,13.6,3.7c2.2,0.6,4.5,1.1,6.7,1.7c2.8,0.7,5.6,1.4,8.4,2.1c1.2,0.3,2.4,0.6,3.6,0.9
			c1.8,0.4,3.7,0.9,5.5,1.3c2.8,0.6,5.6,1.3,8.4,1.9c0.9,0.2,1.8,0.4,2.7,0.6c1,0.2,2,0.4,3.1,0.7c1.7,0.4,3.4,0.7,5.1,1.1
			c2.6,0.5,5.3,1.1,7.9,1.6c2.1,0.4,4.3,0.8,6.4,1.2c3.7,0.7,7.3,1.4,11,2c1.4,0.2,2.7,0.5,4.1,0.7c0.6,0.1,1.3,0.2,1.9,0.3
			c0.2,0,0.4,0.1,0.7,0.1c0.3,0.1,0.7,0.1,1,0.2c0.4,0.1,0.7,0.1,1.1,0.2c1.5,0.3,2.9,0.5,4.4,0.7c0.4,0.1,0.8,0.1,1.3,0.2h0.1
			c0.3,0,0.6,0.1,0.8,0.1c2.2,0.4,4.5,0.7,6.7,1c1.7,0.3,3.4,0.5,5.2,0.8c2.1,0.3,4.1,0.6,6.2,0.9c1.5,0.2,2.9,0.4,4.4,0.6
			c1.7,0.2,3.4,0.4,5.1,0.7c2,0.3,4,0.5,5.9,0.8c2.1,0.3,4.1,0.5,6.2,0.7c0.2,0,0.5,0.1,0.7,0.1c1.1,0.1,2.1,0.3,3.2,0.4
			c2.8,0.3,5.6,0.6,8.4,0.9c2.5,0.3,4.9,0.5,7.4,0.7c1.5,0.1,3,0.3,4.6,0.4c1,0.1,1.9,0.2,2.9,0.3c3.6,0.3,7.2,0.6,10.8,0.9
			c1,0.1,2.1,0.2,3.1,0.2c2.4,0.2,4.9,0.4,7.3,0.5c3.8,0.3,7.7,0.5,11.6,0.7c1.9,0.1,3.9,0.2,5.8,0.3c1.9,0.1,3.9,0.2,5.8,0.3
			c1.9,0.1,3.9,0.2,5.8,0.2c2.7,0.1,5.5,0.2,8.2,0.3c2.7,0.1,5.5,0.2,8.2,0.2c1,0,1.9,0,2.9,0.1c2.4,0,4.8,0.1,7.2,0.1
			c1.2,0,2.4,0,3.6,0c1.2,0,2.4,0,3.6,0c2.5,0,4.9,0,7.4,0c2.7,0,5.4,0,8.1,0h0.6c2,0,4,0,6.1-0.1c4.7-0.1,9.5-0.2,14.2-0.3
			c2.4-0.1,4.9-0.1,7.3-0.2c1.4,0,2.9-0.1,4.3-0.1c1.3,0,2.7-0.1,4-0.1c4.6-0.2,9.2-0.4,13.7-0.6c0.9,0,1.7-0.1,2.6-0.1
			c1.6-0.1,3.2-0.2,4.8-0.3c2.5-0.1,4.9-0.3,7.4-0.4c1.2-0.1,2.4-0.2,3.6-0.2c1.3-0.1,2.5-0.2,3.8-0.3c2.3-0.2,4.5-0.3,6.8-0.5
			c2.3-0.2,4.5-0.4,6.8-0.5c0.3,0,0.5,0,0.8-0.1c0.9-0.1,1.8-0.1,2.7-0.2c0.2,0,0.5,0,0.7-0.1c2.3-0.2,4.5-0.4,6.8-0.6
			c0.1,0,0.1,0,0.2,0c2.6-0.2,5.1-0.5,7.7-0.7c0.4,0,0.8-0.1,1.2-0.1c1.3-0.1,2.6-0.3,3.9-0.4c22.3,42.2,42.4,86.9,59.6,133
			c-2.2,0.5-4.5,1.1-6.9,1.7c-0.6,0.1-1.2,0.3-1.9,0.4c-1.9,0.4-3.8,0.9-5.8,1.3c-1.2,0.3-2.4,0.5-3.7,0.8c-0.4,0.1-0.7,0.1-1.1,0.2
			c-0.7,0.1-1.4,0.3-2.1,0.5c-1,0.2-2.1,0.4-3.1,0.6c-1.5,0.3-2.9,0.6-4.5,0.9c-0.7,0.1-1.4,0.3-2.1,0.4c-1.1,0.2-2.1,0.4-3.2,0.6
			c-0.8,0.1-1.6,0.3-2.4,0.5c-2.9,0.5-5.9,1.1-9,1.6c-1,0.2-2,0.4-3,0.5c-5,0.9-10.3,1.7-15.8,2.5c-3,0.5-6,0.9-9.1,1.3
			c-2.7,0.4-5.4,0.7-8.2,1.1c-3.5,0.5-7,0.9-10.6,1.3c-0.6,0.1-1.3,0.2-2,0.2c-2,0.2-4,0.5-6,0.7c-0.1,0-0.1,0-0.2,0
			c-1.8,0.2-3.7,0.4-5.6,0.6c-0.8,0.1-1.6,0.2-2.4,0.2c-1.3,0.1-2.7,0.3-4,0.4c-2.7,0.3-5.5,0.5-8.3,0.8c-1.4,0.1-2.8,0.3-4.2,0.4
			c-3.3,0.3-6.7,0.6-10.2,0.8c-0.7,0.1-1.5,0.1-2.2,0.2s-1.5,0.1-2.2,0.2c-1.5,0.1-3,0.2-4.4,0.3c-1.5,0.1-3.1,0.2-4.6,0.3
			c-1.6,0.1-3.2,0.2-4.9,0.3c-1.6,0.1-3.3,0.2-4.9,0.3c-1.6,0.1-3.3,0.2-4.9,0.3c-2.1,0.1-4.3,0.2-6.4,0.3c-1.1,0.1-2.2,0.1-3.3,0.2
			c-1.1,0-2.2,0.1-3.3,0.1c-1.4,0.1-2.8,0.1-4.2,0.2c-5.6,0.2-11.2,0.4-17,0.6c-1.1,0-2.3,0.1-3.5,0.1c-1.8,0-3.5,0.1-5.3,0.1
			c-2.1,0-4.2,0.1-6.3,0.1c-1.5,0-2.9,0.1-4.4,0.1c-1.8,0-3.6,0.1-5.4,0.1c-1.3,0-2.6,0-3.8,0c-1.3,0-2.6,0-3.9,0
			c-0.3,0-0.6,0-0.9,0c-0.6,0-1.2,0-1.8,0c-6.5,0-13.1,0-19.9,0c-0.9,0-1.9,0-2.9,0c-2.3,0-4.6-0.1-6.9-0.1c-1.6,0-3.3,0-4.9-0.1
			c-3.3-0.1-6.7-0.1-10-0.2c-2.6-0.1-5.2-0.1-7.7-0.2c-2.6-0.1-5.1-0.2-7.7-0.3c-0.7,0-1.4-0.1-2.2-0.1c-0.8,0-1.5-0.1-2.3-0.1
			c-1.1,0-2.1-0.1-3.1-0.2c-1-0.1-2.1-0.1-3.1-0.2c-1.5-0.1-3-0.2-4.5-0.3c-1.1-0.1-2.1-0.1-3.2-0.2c-0.4,0-0.8-0.1-1.1-0.1
			c-0.3,0-0.7,0-1-0.1c-0.2,0-0.3,0-0.5,0c-0.6,0-1.1-0.1-1.7-0.1c-0.8-0.1-1.6-0.1-2.3-0.2c-0.9-0.1-1.9-0.2-2.8-0.3
			c-1.3-0.1-2.5-0.2-3.8-0.4c-1.3-0.1-2.5-0.3-3.8-0.4c-0.7-0.1-1.5-0.1-2.2-0.2c-1-0.1-2-0.2-2.9-0.3c-4.7-0.5-9.3-1.1-13.9-1.7
			c-1.2-0.1-2.3-0.3-3.5-0.5c-3.2-0.4-6.3-0.9-9.4-1.4c-2.9-0.4-5.8-0.9-8.7-1.4c-0.4-0.1-0.7-0.1-1.1-0.2c-1.3-0.2-2.7-0.4-4-0.7
			c-1.5-0.3-3-0.5-4.5-0.8s-3-0.5-4.5-0.8c-0.1,0-0.2,0-0.2,0c-1.4-0.3-2.8-0.5-4.3-0.8c-0.9-0.2-1.7-0.3-2.6-0.5
			c-1.9-0.4-3.7-0.7-5.6-1.1c-0.3-0.1-0.7-0.1-1-0.2c-1.5-0.3-3-0.6-4.5-1c-0.7-0.1-1.4-0.3-2.1-0.4c-1.4-0.3-2.7-0.6-4.1-0.9
			c-1.9-0.4-3.8-0.9-5.6-1.3c-0.7-0.2-1.4-0.3-2.1-0.5c-1.4-0.3-2.9-0.7-4.3-1c-0.2,0-0.3-0.1-0.5-0.1c-1.4-0.3-2.8-0.7-4.1-1
			c-1.4-0.3-2.7-0.7-4.1-1c-0.4-0.1-0.7-0.2-1.1-0.3c-0.9-0.2-1.8-0.5-2.8-0.7c-0.5-0.1-1-0.3-1.4-0.4c-1.1-0.3-2.1-0.6-3.2-0.9
			c-1-0.3-2.1-0.5-3.1-0.8c-1.1-0.3-2.1-0.6-3.2-0.9c-1-0.3-2.1-0.6-3.1-0.9c-0.4-0.1-0.8-0.2-1.2-0.3c-1-0.3-2-0.6-3-0.9
			c-1.7-0.5-3.4-1-5-1.5c-1-0.3-1.9-0.6-2.9-0.9c-0.3-0.1-0.6-0.2-0.9-0.3c-1.5-0.5-2.9-0.9-4.4-1.4c-0.5-0.1-0.9-0.3-1.4-0.4
			c-1.3-0.4-2.5-0.8-3.8-1.2c-1.6-0.5-3.2-1-4.7-1.5c-0.1,0-0.3-0.1-0.4-0.1c-1.7-0.6-3.4-1.1-5-1.7c-1.3-0.5-2.6-0.9-4-1.4
			c-0.1,0-0.1,0-0.2-0.1c-0.9-0.3-1.8-0.6-2.7-0.9c-0.5-0.2-0.9-0.3-1.4-0.5c-0.9-0.3-1.8-0.6-2.7-0.9c-0.9-0.3-1.8-0.6-2.7-1
			c-0.9-0.3-1.7-0.6-2.6-0.9c-1.1-0.4-2.2-0.8-3.2-1.2c-0.9-0.3-1.8-0.7-2.7-1c-1-0.4-2.1-0.8-3.1-1.2c-0.1,0-0.2-0.1-0.3-0.1
			c-2.5-0.9-4.9-1.9-7.3-2.8c-1.2-0.5-2.3-0.9-3.5-1.4c-0.8-0.3-1.6-0.6-2.4-1c-3.7-1.5-7.2-3-10.7-4.4c-0.6-0.3-1.3-0.5-1.9-0.8
			c-0.8-0.3-1.5-0.6-2.3-1c-0.8-0.3-1.5-0.6-2.2-1c-4.5-1.9-8.7-3.9-12.9-5.8c-0.9-0.4-1.8-0.8-2.6-1.2c-0.9-0.4-1.7-0.8-2.6-1.2
			c-0.9-0.4-1.7-0.8-2.6-1.2c-0.5-0.2-1-0.5-1.5-0.7c-6-2.9-11.6-5.7-16.9-8.4c-0.9-0.5-1.8-0.9-2.7-1.4c-1.1-0.6-2.2-1.1-3.2-1.7
			c-0.5-0.3-1-0.6-1.6-0.8c-1.6-0.8-3.1-1.6-4.5-2.4c-0.6-0.3-1.2-0.6-1.7-0.9c-0.6-0.3-1.1-0.6-1.7-0.9c-1.1-0.6-2.2-1.2-3.3-1.8
			c-0.5-0.3-0.9-0.5-1.4-0.8c-0.3-0.2-0.6-0.3-0.9-0.5c-1-0.6-2.1-1.2-3-1.7c-0.7-0.4-1.4-0.8-2.1-1.2c-1.6-0.9-3.1-1.8-4.6-2.7
			c-0.3-0.2-0.7-0.4-1-0.6c-0.7-0.4-1.3-0.8-1.9-1.2C1682.2,1143.7,1687.7,1132.3,1691.4,1119.5z M1670,1159.9
			c0.1,0,0.1,0.1,0.2,0.1c0.5,0.3,1,0.6,1.5,0.9c0.4,0.3,0.8,0.5,1.2,0.8c0.4,0.3,0.9,0.5,1.3,0.8c0.4,0.2,0.8,0.5,1.2,0.7
			c1.2,0.7,2.4,1.4,3.7,2.1c0.7,0.4,1.3,0.8,2.1,1.2c0.6,0.4,1.2,0.7,1.9,1.1c0.5,0.3,0.9,0.5,1.4,0.8c0.5,0.3,0.9,0.5,1.4,0.8
			c0.9,0.5,1.9,1.1,2.9,1.6c1.6,0.9,3.3,1.8,5,2.7c0.9,0.5,1.8,1,2.8,1.5c0,0,0.1,0,0.1,0.1c0.9,0.5,1.8,1,2.7,1.4
			c0.7,0.4,1.4,0.8,2.2,1.1c1.1,0.6,2.3,1.2,3.5,1.8c0.6,0.3,1.2,0.6,1.8,0.9c0.6,0.3,1.2,0.6,1.8,0.9c0.6,0.3,1.2,0.6,1.8,0.9
			c0.6,0.3,1.2,0.6,1.9,0.9s1.3,0.6,1.9,0.9c0.6,0.3,1.3,0.6,1.9,1c1.3,0.6,2.6,1.3,3.9,1.9c0.9,0.4,1.8,0.9,2.7,1.3
			c0.4,0.2,0.9,0.4,1.3,0.6c0.7,0.3,1.4,0.6,2.1,1c0.7,0.3,1.4,0.6,2.1,1s1.4,0.7,2.1,1c0.1,0.1,0.2,0.1,0.3,0.2
			c1.3,0.6,2.6,1.2,4,1.8c0.7,0.3,1.5,0.7,2.2,1c0.7,0.3,1.5,0.7,2.2,1c0.3,0.1,0.7,0.3,1,0.4c1.1,0.5,2.1,1,3.2,1.4
			c0.1,0,0.2,0.1,0.3,0.1c0.8,0.3,1.5,0.7,2.3,1c1.5,0.7,3.1,1.3,4.7,2s3.2,1.3,4.8,2c1.3,0.5,2.6,1.1,3.9,1.6
			c1.6,0.6,3.1,1.3,4.7,1.9c1.3,0.5,2.5,1,3.8,1.5c1.7,0.7,3.4,1.3,5.1,2c0.9,0.3,1.7,0.7,2.6,1c3.5,1.3,7.1,2.7,10.7,4
			c71.2,25.8,144.6,39.8,218.3,41.6c15.5,0.4,30.5,0.5,44.8,0.5c2.8,0,5.6,0,8.4-0.1c0.7,0,1.4,0,2.2,0c0.8,0,1.7,0,2.5,0
			c0.8,0,1.7,0,2.5,0c0.6,0,1.2,0,1.8,0c1.7,0,3.3-0.1,5-0.1c3.7-0.1,7.4-0.2,11.1-0.3c1.8,0,3.6-0.1,5.4-0.2c1.8,0,3.6-0.1,5.4-0.2
			c1.1,0,2.2-0.1,3.3-0.1c0.9,0,1.9-0.1,2.8-0.1c1.3,0,2.6-0.1,3.9-0.2c2.3-0.1,4.6-0.2,6.9-0.3c1.3-0.1,2.6-0.1,3.8-0.2
			c1.7-0.1,3.4-0.2,5-0.3c1.5-0.1,3-0.2,4.4-0.3c0.2,0,0.5,0,0.7,0c1.6-0.1,3.2-0.2,4.7-0.3c0.1,0,0.2,0,0.4,0
			c1.5-0.1,3-0.2,4.5-0.3c1.6-0.1,3.2-0.2,4.8-0.3c0.9-0.1,1.8-0.1,2.7-0.2c1.3-0.1,2.7-0.2,4-0.3c2.5-0.2,4.9-0.4,7.3-0.6
			c1.2-0.1,2.3-0.2,3.4-0.3c1.9-0.2,3.7-0.3,5.5-0.5c1.4-0.1,2.9-0.3,4.3-0.4c0,0,0.1,0,0.1,0c1.4-0.1,2.9-0.3,4.3-0.4
			c2.5-0.3,4.9-0.5,7.3-0.8c1.8-0.2,3.5-0.4,5.3-0.6c1.4-0.2,2.7-0.3,4-0.5c1.5-0.2,2.9-0.3,4.3-0.5c2.5-0.3,5-0.6,7.4-0.9
			c1.3-0.2,2.5-0.3,3.8-0.5h0c2.4-0.3,4.8-0.6,7.2-1c0.1,0,0.1,0,0.2,0c2.3-0.3,4.5-0.6,6.7-1c1.6-0.2,3.1-0.5,4.7-0.7
			c0.5-0.1,1-0.1,1.5-0.2c0.4-0.1,0.8-0.1,1.1-0.2c0,0,0,0,0.1,0c0.1,0,0.1,0,0.1,0h0c0,0,0.1,0,0.1,0c0,0,0.1,0,0.1,0
			c0,0,0.1,0,0.2,0c0.1,0,0.1,0,0.2,0c0,0,0,0,0,0c0,0,0,0,0.1,0h0c0.2,0,0.4-0.1,0.6-0.1c0.2,0,0.4-0.1,0.6-0.1
			c0.4-0.1,0.9-0.1,1.3-0.2c1.1-0.2,2.2-0.4,3.3-0.5c2.2-0.4,4.3-0.7,6.4-1.1c0.9-0.1,1.8-0.3,2.7-0.4c0.9-0.2,1.8-0.3,2.7-0.5
			c0.6-0.1,1.3-0.2,1.9-0.3c0.6-0.1,1.2-0.2,1.8-0.3c1-0.2,1.9-0.4,2.9-0.5c0.9-0.2,1.9-0.4,2.8-0.5c0.9-0.2,1.9-0.4,2.8-0.5
			c0.9-0.2,1.8-0.4,2.7-0.5c1.8-0.4,3.5-0.7,5.2-1.1c1.7-0.4,3.4-0.7,5-1.1c0.8-0.2,1.6-0.3,2.4-0.5c1.2-0.3,2.3-0.5,3.5-0.8
			c1.1-0.3,2.2-0.5,3.3-0.8c1.4-0.3,2.8-0.7,4.2-1c0.1,0,0.2,0,0.3-0.1c1.2-0.3,2.4-0.6,3.5-0.9c0.1,0,0.3-0.1,0.4-0.1
			c9.7,26.5,18.7,53.8,26.6,81.1c28.2,97,42.2,187.2,42.2,279.9c0,92.8-14.1,188.1-42.3,295.4c-4.8,18.4-10.5,36.4-16.8,53.5v0
			c-0.2,0-0.4,0.1-0.6,0.1c-0.2,0-0.4,0.1-0.6,0.1c-0.4,0.1-0.9,0.1-1.3,0.2c-0.5,0.1-1,0.2-1.5,0.2c-1,0.2-2,0.3-2.9,0.5
			c-1.1,0.2-2.1,0.3-3.2,0.5c-0.5,0.1-1,0.1-1.5,0.2c-1.2,0.2-2.5,0.4-3.7,0.5c-0.2,0-0.4,0.1-0.6,0.1c-0.5,0.1-1,0.1-1.5,0.2
			c-1.6,0.2-3.2,0.4-4.8,0.6c-1,0.1-2,0.2-3,0.4c-0.2,0-0.3,0-0.5,0.1c-1.9,0.2-3.7,0.4-5.5,0.6c-1.3,0.1-2.5,0.3-3.7,0.4
			c-1,0.1-2,0.2-3,0.3c-1.1,0.1-2.2,0.2-3.2,0.3c-0.3,0-0.7,0.1-1,0.1c-0.9,0.1-1.8,0.1-2.6,0.2c-1,0.1-1.9,0.1-2.9,0.2
			c-1.1,0.1-2.3,0.2-3.4,0.2c-1.1,0.1-2.2,0.1-3.4,0.2c-2.2,0.1-4.5,0.3-6.7,0.4c-2.2,0.1-4.4,0.2-6.7,0.3c-1.1,0-2.2,0.1-3.3,0.1
			c-1.1,0-2.2,0.1-3.3,0.1c-3.5,0.1-6.9,0.1-10.3,0.1c-1.3,0-2.5,0-3.8,0c-2.2,0-4.5,0-6.7-0.1c-2.3-0.1-4.6-0.1-6.8-0.2
			c-1.1,0-2.3-0.1-3.4-0.1c-2.3-0.1-4.5-0.2-6.7-0.3c-1.1-0.1-2.3-0.1-3.4-0.2c-3.3-0.2-6.6-0.4-9.8-0.7c-3.3-0.2-6.5-0.5-9.8-0.8
			c-1.1-0.1-2.1-0.2-3.2-0.3c-5.4-0.5-10.7-1.1-15.9-1.9c-1.5-0.2-3-0.4-4.5-0.6c-3-0.4-5.9-0.9-8.9-1.3c-2.9-0.5-5.9-0.9-8.8-1.5
			c-1.1-0.2-2.2-0.4-3.3-0.6c-2.2-0.4-4.3-0.8-6.4-1.2c0,0,0,0,0,0c-2.1-0.4-4.2-0.8-6.3-1.3c-3.2-0.6-6.3-1.3-9.4-2
			c-2.1-0.4-4.1-0.9-6.1-1.4c-2-0.5-4-1-6-1.5c-2.7-0.6-5.3-1.3-7.9-2c-0.9-0.2-1.8-0.5-2.7-0.7c-2.7-0.7-5.4-1.5-8.1-2.2
			c-4.4-1.2-8.7-2.5-13-3.8c-0.8-0.2-1.6-0.5-2.4-0.8c-1.5-0.5-3-0.9-4.5-1.4c-0.9-0.3-1.7-0.6-2.6-0.8c-1-0.3-2.1-0.7-3.1-1
			c-0.9-0.3-1.7-0.6-2.6-0.9c-2.8-0.9-5.5-1.9-8.1-2.8c-1.8-0.6-3.6-1.3-5.3-1.9c-1.8-0.6-3.5-1.3-5.2-1.9c-0.8-0.3-1.7-0.6-2.6-1
			c-1.4-0.5-2.8-1.1-4.1-1.6c-4.1-1.6-8-3.2-11.9-4.8c-0.5-0.2-0.9-0.4-1.4-0.6c-2.1-0.9-4.1-1.8-6.2-2.6c-0.7-0.3-1.3-0.6-2-0.9
			c-0.7-0.3-1.3-0.6-2-0.9c-0.7-0.3-1.3-0.6-2-0.9c-1.9-0.9-3.8-1.8-5.7-2.6c-3.2-1.5-6.2-2.9-9.2-4.4c-0.6-0.3-1.2-0.6-1.8-0.9
			c-2.3-1.1-4.6-2.3-6.8-3.4c-0.9-0.4-1.7-0.9-2.5-1.3c-1.6-0.8-3.1-1.6-4.6-2.4c-1.3-0.7-2.6-1.4-3.8-2c-2-1.1-3.9-2.1-5.7-3.1
			c-0.5-0.3-0.9-0.5-1.4-0.8c-0.5-0.3-1-0.6-1.5-0.9c-1.3-0.7-2.5-1.4-3.7-2.1c-0.4-0.2-0.8-0.5-1.3-0.7c-0.8-0.5-1.6-0.9-2.3-1.4
			c-1.7-1-3.3-2-4.9-2.9c-1.2-0.7-2.3-1.4-3.4-2.1c-0.4-0.3-0.8-0.5-1.3-0.8c-0.2-0.1-0.4-0.2-0.6-0.4v0h0c0.5-0.6,0.9-1.2,1.4-1.8
			c0.7-0.9,1.4-1.8,2.1-2.6c0.5-0.7,1.1-1.4,1.6-2.1c1.5-2,3-4,4.5-6c0.6-0.8,1.2-1.6,1.8-2.5c1.1-1.5,2.1-2.9,3.2-4.4
			c0.7-0.9,1.3-1.8,1.9-2.7c0.4-0.6,0.8-1.1,1.2-1.7c0.9-1.3,1.7-2.5,2.6-3.8c0.8-1.3,1.7-2.6,2.5-3.9c0.8-1.3,1.7-2.6,2.5-3.8
			c0.9-1.4,1.8-2.8,2.6-4.2c0.7-1.2,1.4-2.4,2.2-3.5c0,0,0-0.1,0.1-0.1c0.8-1.3,1.6-2.6,2.3-3.9c0.8-1.3,1.5-2.6,2.3-4
			c0.8-1.4,1.6-2.8,2.4-4.3c0.4-0.7,0.8-1.4,1.2-2.1c0.5-1,1.1-1.9,1.6-2.9c0.5-1,1-2,1.5-2.9s1-2,1.5-3c0.5-1,1-2,1.5-2.9
			c1.8-3.6,3.5-7.2,5.2-10.8c0.4-0.9,0.8-1.8,1.2-2.7s0.8-1.8,1.2-2.7c0.4-0.9,0.8-1.8,1.2-2.7c0.4-0.9,0.7-1.7,1.1-2.6
			c0.1-0.1,0.1-0.2,0.1-0.3c0.3-0.7,0.6-1.4,0.9-2.2c0.3-0.6,0.5-1.3,0.8-1.9c0.4-0.9,0.7-1.7,1-2.6c0.7-1.7,1.4-3.4,2-5.1
			c0.3-0.7,0.5-1.4,0.8-2.2c0.6-1.7,1.3-3.4,1.9-5.1c0.5-1.6,1.1-3.1,1.6-4.7c0,0,0-0.1,0.1-0.1c0.5-1.4,1-2.9,1.4-4.3
			c0.1-0.2,0.1-0.4,0.2-0.6c0.3-0.8,0.5-1.6,0.8-2.5c0.3-0.8,0.5-1.6,0.8-2.5c0.3-0.8,0.5-1.6,0.7-2.4c0.3-1,0.6-1.9,0.9-2.9
			c0.3-0.9,0.5-1.9,0.8-2.9c0.3-0.9,0.5-1.9,0.8-2.8c0.2-0.7,0.4-1.3,0.5-2c1-3.9,2-7.8,2.9-11.7c0.2-0.8,0.4-1.6,0.6-2.5
			c0.1-0.6,0.3-1.1,0.4-1.7c0.2-0.9,0.4-1.8,0.6-2.7c0.4-2,0.8-4,1.2-6c0.2-1.1,0.4-2.1,0.6-3.2c0.4-2.1,0.8-4.3,1.1-6.5
			c0.2-1.1,0.3-2.1,0.5-3.2c0.2-1.2,0.4-2.3,0.5-3.5c0.2-1.2,0.3-2.4,0.5-3.5c0-0.3,0.1-0.6,0.1-0.8c0.2-1.7,0.5-3.5,0.7-5.2
			c5.3-44.3,2.1-90.1-9.4-132.5c-11.7-43.5-32.1-83.7-59.1-116.2c-48.4-58.5-116.3-92.3-196.3-97.8c-18.3-1.3-36.6-0.9-54.6,0.9
			c-0.2-0.9-0.4-1.9-0.6-2.8c-0.4-1.7-0.8-3.3-1.2-5c-1.4-5.2-3-10.4-4.8-15.5c-0.3-0.9-0.6-1.7-0.9-2.6c-0.5-1.5-1.1-3-1.7-4.5
			c-0.3-0.9-0.7-1.7-1-2.6c-0.1-0.2-0.1-0.4-0.2-0.5c-0.3-0.6-0.5-1.2-0.8-1.9c-0.1-0.1-0.1-0.3-0.2-0.4c-0.4-0.9-0.8-1.8-1.1-2.7
			c-0.8-1.8-1.5-3.6-2.3-5.3c-0.8-1.8-1.6-3.5-2.5-5.3c-0.4-0.9-0.8-1.8-1.3-2.6c-0.5-1-1-2-1.5-3c-0.4-0.8-0.8-1.6-1.2-2.4
			c-0.4-0.8-0.8-1.6-1.3-2.4c-0.5-0.9-0.9-1.7-1.4-2.6s-0.9-1.7-1.4-2.6c-0.8-1.5-1.6-2.9-2.5-4.4c-0.8-1.5-1.7-2.9-2.5-4.4
			c-0.7-1.2-1.5-2.5-2.2-3.7c-0.1-0.2-0.2-0.4-0.4-0.6c-0.8-1.3-1.6-2.7-2.4-4c-0.1-0.1-0.1-0.2-0.2-0.3c-0.5-0.8-1-1.6-1.5-2.4
			c-0.6-1-1.2-1.9-1.8-2.9c-0.4-0.6-0.8-1.2-1.2-1.8c-7.6-11.7-15.5-22.5-23.1-32c-0.5-0.6-1-1.3-1.5-1.9c-1-1.3-2-2.5-3-3.7
			c-0.5-0.6-1-1.2-1.5-1.8c-1-1.2-1.9-2.4-2.9-3.5c-2.3-2.8-4.6-5.4-6.7-7.9C1621.9,1191.4,1649,1184.2,1670,1159.9z M1040.3,1265.3
			c49-10.3,83.8-26.4,117.5-42c49.7-23,96.7-44.8,185.9-48.9c125.4-5.8,183.3,7.3,217.9,15.1c7,1.6,13,2.9,18.3,3.8
			c4.9,0.8,10.2,1.1,15.8,1c0.4,0.5,0.8,0.9,1.2,1.4c0.3,0.3,0.6,0.6,0.8,1c6.1,6.9,12.9,15.2,20.1,24.4c1,1.3,2,2.6,3,4
			c1.6,2.1,3.2,4.3,4.8,6.5c0.4,0.6,0.9,1.2,1.3,1.8c0.5,0.7,1,1.4,1.5,2.1c0.5,0.7,1,1.4,1.5,2.2c0.5,0.7,1,1.4,1.5,2.2
			c1,1.5,2,2.9,3,4.4c0.8,1.1,1.5,2.3,2.3,3.4c0.8,1.1,1.5,2.3,2.2,3.4c0.4,0.7,0.9,1.4,1.3,2.1c1,1.6,2.1,3.3,3.1,4.9
			c0.4,0.7,0.9,1.4,1.3,2.1c0.7,1.1,1.4,2.3,2,3.4c0.3,0.6,0.7,1.1,1,1.7c0.5,0.8,0.9,1.6,1.4,2.4c0.5,0.8,0.9,1.6,1.4,2.5
			c0.6,1,1.2,2.1,1.7,3.1c0.3,0.6,0.7,1.2,1,1.9c0.6,1.1,1.2,2.2,1.7,3.3c0.2,0.3,0.3,0.6,0.5,0.9c0.6,1.1,1.2,2.3,1.8,3.4
			c0.4,0.9,0.9,1.7,1.3,2.6c0.2,0.4,0.4,0.8,0.6,1.2c0.2,0.4,0.4,0.8,0.6,1.2c0.6,1.2,1.1,2.4,1.7,3.6c0.6,1.2,1.1,2.4,1.6,3.6
			c0.3,0.7,0.6,1.3,0.9,2c0.2,0.4,0.4,0.9,0.5,1.3c0.3,0.7,0.6,1.4,0.9,2c1.4,3.3,2.6,6.5,3.8,9.9c0.2,0.6,0.4,1.1,0.6,1.7
			c0.2,0.7,0.5,1.3,0.7,2c0.3,0.9,0.6,1.8,0.9,2.7c0.3,0.9,0.6,1.8,0.9,2.7c1.4,4.4,2.6,8.9,3.6,13.4c0.1,0.5,0.2,1,0.3,1.5
			c0,0.1,0,0.1,0,0.2c-78.1,10.2-138.5,48.9-175.6,79.9c-40.9,34.1-62.6,65.6-63.5,67l6.6,4.5c0.2-0.3,22.1-32,62.2-65.5
			c36.9-30.8,97.3-69.4,175.5-78.5c18.6-2.2,37.7-2.6,56.8-1.3c77.8,5.4,143.7,38.2,190.7,94.9c53.1,64.1,77.4,152.6,66.7,242.6
			c-8.1,68.1-36.2,133-81.2,187.7c-52.1,63.2-125.9,111.5-207.9,136c-95,28.3-252.5,18.9-387.8-14.9c-3.6-0.9-7.2-1.8-10.8-2.8
			c-1.2-0.3-2.4-0.6-3.6-0.9c-2.4-0.6-4.7-1.3-7.1-1.9c-2.4-0.6-4.7-1.3-7.1-2c-2.3-0.7-4.7-1.3-7-2c-1.2-0.3-2.3-0.7-3.5-1
			c-3.5-1-6.9-2.1-10.4-3.1c-3.4-1.1-6.8-2.1-10.2-3.2c-1.7-0.5-3.4-1.1-5.1-1.6c-3.3-1.1-6.7-2.2-10-3.4c-3.3-1.1-6.6-2.3-9.8-3.5
			c-3.2-1.2-6.4-2.4-9.6-3.6c-1.6-0.6-3.2-1.2-4.8-1.8c-11.6-4.5-22.7-9.1-33.3-14c-1-0.4-1.9-0.9-2.9-1.3c-1.9-0.9-3.8-1.8-5.7-2.7
			s-3.8-1.8-5.6-2.7c-2.8-1.4-5.5-2.8-8.2-4.1c-1.8-0.9-3.6-1.9-5.3-2.8c-2.6-1.4-5.2-2.8-7.8-4.3c-0.9-0.5-1.7-1-2.5-1.4
			c-1.7-1-3.3-1.9-5-2.9c-0.8-0.5-1.6-1-2.4-1.5c-1.6-1-3.2-2-4.8-3c-1.6-1-3.1-2-4.7-3c-94.6-62.1-132.4-117.4-136.1-145.8
			c-0.7-5.6,0.2-8.4,0.9-9.1c1.1-1.2,2.2-2.1,3.3-2.7c0.4-0.2,0.8-0.4,1.1-0.6c2.5-1,5-1,7-0.6c0.2,0,0.4,0.1,0.6,0.1
			c0.1,0,0.3,0.1,0.4,0.1c0.2,0.1,0.4,0.1,0.6,0.2c0.9,0.3,1.6,0.6,2.1,0.8c0.2,0.1,0.4,0.2,0.5,0.3c0.1,0,0.1,0.1,0.2,0.1
			c0.1,0,0.1,0,0.1,0.1l0.3,0.2l26.3,10.1c18.7,7.2,43.1,10.6,55.7,7.9c24.5,9.9,71.6,25.3,126.2,25.3c2.6,0,5.3,0,7.9-0.1
			c73.5-2.1,134.7-32.1,181.7-89.3l129-157l-6.2-5.1l-129,157c-101.7,123.8-248.3,84-300.9,64.1c0.1-0.2,0.2-0.3,0.3-0.5
			c0.1-0.2,0.2-0.4,0.3-0.6c0,0,0,0,0,0c0.1-0.3,0.2-0.5,0.2-0.7c0.1-0.2,0.1-0.5,0.1-0.7c0.1-0.4,0.1-0.7,0.1-1c0-0.4,0-0.8,0-1.1
			c0-0.3-0.1-0.5-0.1-0.7c-0.1-0.3-0.2-0.7-0.3-1c-0.1-0.3-0.3-0.7-0.5-1.1c-0.2-0.4-0.4-0.8-0.7-1.2c-0.1-0.2-0.3-0.4-0.4-0.6
			c-0.3-0.4-0.6-0.9-1-1.4c-0.4-0.5-0.8-1-1.2-1.5c-0.4-0.5-0.9-1.1-1.4-1.7c-5-5.5-13.4-13.4-26.5-25.6
			c-25.7-23.8-64.6-59.8-98.8-101.7c-10.7-13.1-20.5-27.3-29-42.3l-1.1-2c-0.3-0.5-0.5-1-0.8-1.4c-0.5-0.9-1-1.8-1.5-2.7
			c-0.5-1-1-1.9-1.5-2.8c-0.5-0.9-0.9-1.8-1.4-2.6c-0.7-1.4-1.4-2.7-2.1-4c-0.4-0.7-0.7-1.4-1-2.1c-0.4-0.8-0.8-1.7-1.2-2.5
			c-0.3-0.7-0.6-1.3-1-2c-2.8-5.9-5.3-11.6-7.5-17.1c-0.4-1-0.8-1.9-1.1-2.8c-1.1-2.8-2.1-5.5-3.1-8.1c-0.5-1.2-0.9-2.4-1.3-3.6
			c-0.4-1.2-0.8-2.5-1.3-3.6c-0.2-0.6-0.4-1.2-0.6-1.8c-0.1-0.2-0.1-0.4-0.2-0.5c-0.5-1.5-1-3-1.4-4.5c-1.8-5.9-3.3-11.1-4.5-15.7
			c1.9,0.7,3.8,1.4,5.8,2c0.3,0.1,0.6,0.2,0.9,0.3c1.7,0.6,3.5,1.2,5.2,1.8c2,0.7,4,1.3,6,2c4,1.3,8.1,2.5,12.1,3.7
			c6.2,1.8,12.4,3.5,18.8,5.1c1.6,0.4,3.2,0.8,4.7,1.2c0.5,0.1,1,0.3,1.6,0.4c1.4,0.3,2.8,0.7,4.2,1c0.8,0.2,1.6,0.4,2.4,0.6
			c2,0.5,3.9,0.9,5.9,1.3c2.1,0.5,4.3,0.9,6.4,1.4c1.5,0.3,3,0.6,4.5,0.9c1.2,0.3,2.4,0.5,3.6,0.7c0.6,0.1,1.2,0.2,1.8,0.3
			c1.3,0.3,2.7,0.5,4,0.7c1.4,0.3,2.8,0.5,4.2,0.8c0.7,0.1,1.5,0.3,2.2,0.4c1.3,0.2,2.7,0.5,4,0.7c1.1,0.2,2.1,0.3,3.1,0.5
			c1,0.2,2.1,0.3,3.1,0.5c1.5,0.2,3.1,0.5,4.6,0.7c0.5,0.1,1.1,0.2,1.6,0.2c1.5,0.2,2.9,0.4,4.4,0.6c1,0.1,2,0.3,3,0.4
			c1.5,0.2,3,0.4,4.4,0.6c0.6,0.1,1.2,0.2,1.8,0.2c1.8,0.2,3.5,0.4,5.3,0.6c0.6,0.1,1.1,0.1,1.7,0.2c1.8,0.2,3.6,0.4,5.4,0.6
			c0.4,0.1,0.9,0.1,1.3,0.1c2,0.2,4,0.4,6,0.6c0.3,0,0.7,0.1,1,0.1c2.1,0.2,4.2,0.4,6.3,0.5c0.2,0,0.4,0,0.6,0
			c2.2,0.2,4.4,0.4,6.6,0.5c0.2,0,0.4,0,0.6,0c1.7,0.1,3.3,0.2,5,0.3c1,0.1,1.9,0.1,2.9,0.2c2.1,0.1,4.3,0.2,6.4,0.3
			c1.8,0.1,3.5,0.2,5.3,0.2c1.8,0.1,3.7,0.1,5.5,0.2c1.5,0.1,3,0.1,4.5,0.1c2.4,0.1,4.8,0.1,7.2,0.2c4.8,0.1,9.5,0.1,14.3,0.1h13
			l-10.8-7.3c-0.4-0.3-41-28-82.7-75.3c-4.8-5.4-9.8-11.3-14.7-17.5c-0.6-0.8-1.3-1.6-1.9-2.4c-1.3-1.6-2.5-3.2-3.8-4.8
			c-0.6-0.8-1.3-1.6-1.9-2.5c-9.1-11.9-18.1-25.1-26.5-39.3c-0.5-0.9-1-1.8-1.6-2.7c-0.6-1-1.1-2-1.7-2.9c-0.6-1-1.1-2-1.7-3
			c-0.6-1-1.1-2-1.7-3c-0.6-1-1.1-2-1.6-3c-4.3-8-8.3-16.3-12.1-24.8c-0.5-1.1-1-2.2-1.4-3.3c-0.5-1.1-1-2.3-1.5-3.5
			c-0.9-2.1-1.8-4.3-2.6-6.5c-2.4-6.1-4.6-12.4-6.6-18.8c-0.3-0.8-0.5-1.6-0.7-2.4c-0.4-1.2-0.7-2.3-1-3.5c-0.7-2.6-1.4-5.1-2.1-7.7
			c-0.3-1.1-0.6-2.2-0.8-3.3c0-0.1,0-0.2-0.1-0.3c-0.3-1-0.5-2-0.7-3c-0.1-0.4-0.2-0.9-0.3-1.3c-0.2-1-0.4-1.9-0.6-2.9
			c-0.3-1.1-0.5-2.2-0.7-3.4c-0.1-0.3-0.1-0.7-0.2-1c-0.2-0.9-0.4-1.9-0.6-2.9c0-0.2-0.1-0.4-0.1-0.6c-0.2-1.1-0.4-2.3-0.6-3.4
			c-0.2-1-0.3-1.9-0.5-2.9c-0.1-0.8-0.3-1.6-0.4-2.5c-0.1-0.5-0.2-0.9-0.2-1.4c-0.1-0.5-0.2-1.1-0.2-1.7c-0.2-1-0.3-2.1-0.4-3.1
			c-0.2-1.2-0.3-2.4-0.4-3.6c0-0.2,0-0.4-0.1-0.6c-0.1-0.6-0.1-1.1-0.2-1.7C977.4,1272,1007.8,1272.1,1040.3,1265.3z M634.1,1017.1
			c0.2-0.6,0.3-1.2,0.5-1.8c0.1-0.5,0.3-0.9,0.4-1.3c0.1-0.4,0.3-0.9,0.4-1.3c0.1-0.4,0.3-0.9,0.4-1.3c0.2-0.8,0.5-1.6,0.7-2.4
			c0.2-0.5,0.3-0.9,0.5-1.4c0.3-0.8,0.5-1.6,0.8-2.4c8.8-1.7,15.3-8,22.1-14.7c11.2-11,23.9-23.4,51.6-24
			c11.9-0.2,20.7,2.7,26.7,9.1c12.3,12.9,10.6,37.4,9.5,52.1c-0.1,2.1-0.3,3.9-0.3,5.6c-0.7,14.7,0.1,27.5,2.3,34.5
			c-5.9,41.4-8.9,120.5,36.3,191.8l6.8-4.3c-41.5-65.5-41.1-138-36-179.7c0,0,0,0,0,0c2.8,0,5.8-3.2,12.5-10.3
			c13.9-14.8,39.7-42.2,56.8-29.6c14.9,11,14.6,33.3,14.1,61.4c-0.3,18.2-0.6,38.9,3.3,60.1c7.3,39.3,40.4,86.7,98,105.2
			c0,0.1,0,0.1,0,0.2c0.1,1,0.2,1.9,0.3,2.9c0,0.2,0,0.4,0.1,0.5c0.1,1,0.2,2.1,0.3,3.1c0,0.1,0,0.2,0,0.3c0.1,1.1,0.3,2.3,0.4,3.4
			c0.1,1,0.3,2,0.4,3.1c0.1,0.8,0.3,1.7,0.4,2.5c0.1,0.7,0.2,1.3,0.3,2c0.1,0.6,0.2,1.3,0.3,1.9c0.3,1.5,0.5,3.1,0.8,4.6
			c0.2,1,0.3,1.9,0.6,2.9c0.2,0.9,0.3,1.7,0.5,2.6c0.1,0.7,0.3,1.4,0.4,2.2c0.3,1.7,0.7,3.3,1.1,5c0.1,0.6,0.3,1.2,0.4,1.8
			c0.2,0.8,0.4,1.5,0.6,2.3c0.2,0.9,0.4,1.7,0.7,2.6c0.3,1.1,0.6,2.2,0.9,3.3c0.3,1,0.6,2.1,0.9,3.1c0.1,0.3,0.2,0.6,0.2,0.9
			c0.3,1,0.6,2,0.9,3c0,0.1,0,0.1,0.1,0.2c0.3,0.9,0.5,1.8,0.8,2.7c0.2,0.8,0.5,1.6,0.8,2.4c0.3,1,0.7,2.1,1,3.1
			c0.3,0.9,0.6,1.8,0.9,2.6c0.4,1.1,0.8,2.2,1.1,3.3c0.3,0.9,0.6,1.8,0.9,2.6c0.8,2.1,1.5,4.2,2.3,6.3c0.3,0.8,0.6,1.6,1,2.5
			c0.9,2.3,1.8,4.6,2.8,6.9c0.9,2.2,1.8,4.3,2.8,6.5c0.5,1.2,1.1,2.4,1.6,3.5c0.4,1,0.9,1.9,1.3,2.9c1.8,3.8,3.6,7.5,5.5,11.2
			c15.4,29.9,35.9,59.4,60.8,87.7c29.9,33.8,59.2,57.8,74.1,69.2c-74-1.2-142-13.3-202.3-35.9c-201-75.3-263.2-245.7-277.5-296.1
			c-8.6-30.3-11.4-60.1-10.8-87.5c0-1.4,0.1-2.7,0.1-4.1c0-0.1,0-0.2,0-0.4c0-1.3,0.1-2.6,0.2-3.9c0-0.9,0.1-1.8,0.1-2.7
			c0-0.7,0.1-1.4,0.1-2.2c0.2-3.4,0.4-6.7,0.7-9.9c0-0.6,0.1-1.2,0.2-1.8c0.1-0.7,0.1-1.4,0.2-2.1c0.1-1,0.2-2,0.3-3
			c0.4-3.6,0.8-7.2,1.3-10.7c0.1-0.6,0.2-1.3,0.3-1.9c0.1-0.6,0.2-1.3,0.3-1.9c0.2-1.2,0.3-2.3,0.5-3.4c0-0.2,0.1-0.4,0.1-0.6
			c0.3-1.8,0.6-3.5,0.9-5.2c0.1-0.6,0.2-1.2,0.3-1.8c0.2-1.2,0.4-2.4,0.7-3.6c0.1-0.8,0.3-1.5,0.4-2.2c0.2-1,0.4-2,0.6-3
			c0.3-1.3,0.5-2.5,0.8-3.7c0.2-1,0.4-2.1,0.7-3.1c0-0.1,0.1-0.3,0.1-0.4c0.2-1,0.4-1.9,0.7-2.9c0.3-1.1,0.5-2.1,0.8-3.2
			c0.1-0.5,0.3-1.1,0.4-1.6c0.3-1.1,0.5-2.1,0.8-3.1c0.1-0.2,0.1-0.5,0.2-0.7c0.4-1.6,0.8-3.1,1.2-4.6c0.1-0.2,0.1-0.4,0.2-0.7
			C633.1,1020.5,633.6,1018.8,634.1,1017.1z M611.4,1507.3c-1.3-10-1.8-15.6-1.8-15.7l-0.1-1.5l-1.1-1.1
			c-94.2-91.6-145.3-181.5-151.8-267.4c-4.1-53.4,10.4-117.3,40.9-180c26.8-55.3,62.7-101.6,93.8-120.8
			c36.5-22.6,48.8-18.1,52.4-15.1c5.4,4.5,5.5,16.2,0.3,29.8c-10.6,27.2-13.6,64.1-13.8,65.6l-0.2,2.1c-0.2,0.6-0.4,1.2-0.6,1.9
			c-0.3,0.9-0.6,1.8-0.8,2.7c-0.1,0.5-0.3,0.9-0.4,1.4c-0.1,0.5-0.3,0.9-0.4,1.4c-1.5,5-3.1,10.5-4.6,16.4c-0.1,0.5-0.3,1-0.4,1.6
			c-0.4,1.6-0.8,3.2-1.2,4.8c-0.2,0.7-0.4,1.5-0.5,2.2c-0.3,1.2-0.5,2.3-0.8,3.5c-0.1,0.6-0.3,1.2-0.4,1.8
			c-0.9,4.3-1.8,8.8-2.6,13.4c-0.1,0.6-0.2,1.2-0.3,1.8c-0.1,0.6-0.2,1.2-0.3,1.9c-0.2,1.2-0.4,2.4-0.6,3.6c-0.5,3.2-1,6.5-1.4,9.8
			c-0.1,0.5-0.1,1-0.2,1.5c-0.4,3.5-0.8,7-1.2,10.6c-0.1,0.7-0.1,1.4-0.2,2c-0.4,4.9-0.8,9.8-1.1,14.9c-0.1,1.2-0.1,2.4-0.2,3.6
			c0,0.2,0,0.4,0,0.5c0,0.7-0.1,1.4-0.1,2.2c-0.1,1.4-0.1,2.9-0.1,4.4c-0.6,28,2.3,58.5,11.1,89.5c9.1,32.2,32.1,95.7,83.8,159.5
			c0.8,1,1.6,2,2.4,3c1.6,2,3.3,3.9,4.9,5.9c0.8,1,1.7,2,2.6,3c1.6,1.9,3.3,3.8,5,5.6c3.5,3.9,7,7.7,10.6,11.4
			c2.6,2.7,5.2,5.3,7.8,8c0.9,0.9,1.8,1.7,2.6,2.6c0.1,0.1,0.2,0.2,0.3,0.3c1.6,1.6,3.3,3.2,4.9,4.8c1,0.9,2,1.9,3,2.8
			c0.9,0.9,1.8,1.7,2.8,2.6c1.9,1.7,3.7,3.4,5.6,5.1s3.8,3.3,5.7,5c0.8,0.7,1.7,1.4,2.5,2.2c2,1.7,4.1,3.4,6.2,5.1
			c1,0.8,2,1.6,2.9,2.4c2,1.6,4,3.1,6,4.7c0.9,0.7,1.8,1.4,2.7,2c3.1,2.4,6.3,4.7,9.5,7c1,0.7,2.1,1.5,3.1,2.2
			c1,0.7,2.1,1.4,3.1,2.2c4.5,3.1,9.1,6.2,13.7,9.1c1,0.7,2.1,1.3,3.1,2c5.5,3.4,11,6.8,16.6,10c1.1,0.6,2.2,1.3,3.3,1.9
			c1.1,0.6,2.3,1.3,3.4,1.9c1.1,0.6,2.3,1.2,3.4,1.9c1.4,0.7,2.7,1.5,4.1,2.2c0.9,0.5,1.8,1,2.8,1.4c1.2,0.6,2.3,1.2,3.5,1.8
			c1.2,0.6,2.3,1.2,3.5,1.8c1.1,0.5,2.2,1.1,3.3,1.6c3.7,1.8,7.5,3.6,11.3,5.3c1,0.5,2.1,0.9,3.1,1.4c1.2,0.5,2.4,1.1,3.6,1.6
			c1.2,0.5,2.3,1,3.5,1.5c3.9,1.7,7.8,3.3,11.8,4.9c1,0.4,2,0.8,3,1.2c0.8,0.3,1.6,0.6,2.4,0.9c0.8,0.3,1.7,0.6,2.5,1
			c0.2,0.1,0.3,0.1,0.5,0.2c0.3,1,0.5,2.2,0.8,3.3c0.1,0.6,0.3,1.2,0.4,1.8c0.3,1.4,0.7,2.8,1.1,4.2c0.1,0.4,0.2,0.7,0.3,1.1
			c0.1,0.5,0.3,1,0.4,1.5c0.3,1,0.6,2.1,0.9,3.2c0.1,0.4,0.2,0.7,0.3,1.1c0.4,1.5,0.9,3,1.4,4.5c0.2,0.6,0.4,1.2,0.6,1.9
			c0.1,0.2,0.1,0.3,0.2,0.5c0.3,0.8,0.5,1.6,0.8,2.4c0.1,0.4,0.3,0.8,0.4,1.2c0.1,0.4,0.3,0.8,0.4,1.2c0.3,0.8,0.6,1.7,0.9,2.5
			c0.2,0.4,0.3,0.9,0.5,1.3c0.3,0.9,0.6,1.7,0.9,2.6c0.3,0.8,0.6,1.6,0.9,2.5c0.3,1,0.7,1.9,1.1,2.9c0.3,0.9,0.7,1.8,1,2.7
			c0,0,0,0.1,0,0.1c0.3,0.9,0.7,1.8,1.1,2.8c0.4,0.9,0.8,1.9,1.1,2.8c1.6,4,3.4,8.1,5.3,12.3c0.4,1,0.9,2,1.4,3
			c0.7,1.4,1.3,2.8,2,4.2c0.4,0.8,0.8,1.6,1.2,2.4c0.1,0.1,0.1,0.2,0.2,0.4c0.5,1.1,1.1,2.1,1.6,3.2c0.4,0.9,0.9,1.7,1.3,2.6
			c0.3,0.6,0.6,1.1,0.9,1.7c0.6,1.2,1.3,2.4,2,3.6c-0.8,0-1.6,0-2.5,0c-1.3,0-2.7,0-4,0c-1.2,0-2.4-0.1-3.6-0.1
			c-1.2,0-2.4-0.1-3.7-0.1c-1.2,0-2.4-0.1-3.6-0.1c-3.6-0.1-7.3-0.3-10.9-0.5c-1.2-0.1-2.4-0.1-3.6-0.2h0c-3.5-0.2-7-0.4-10.5-0.7
			c-1.3-0.1-2.5-0.2-3.8-0.3c-1.2-0.1-2.4-0.2-3.5-0.3c-1.2-0.1-2.4-0.2-3.5-0.3c-1.2-0.1-2.3-0.2-3.5-0.3c-7-0.6-14-1.4-20.9-2.2
			c-1.9-0.2-3.7-0.5-5.5-0.7c-2.2-0.3-4.4-0.6-6.6-0.9c-1.1-0.1-2.2-0.3-3.3-0.5c-0.7-0.1-1.5-0.2-2.2-0.3c-0.9-0.1-1.8-0.3-2.7-0.4
			c-2.7-0.4-5.4-0.8-8.1-1.3c-1.7-0.3-3.5-0.6-5.2-0.9c-2.2-0.4-4.4-0.7-6.6-1.1c-1.1-0.2-2.2-0.4-3.3-0.6c-1.1-0.2-2.2-0.4-3.2-0.6
			c-2.4-0.4-4.8-0.9-7.1-1.3c-1-0.2-2.1-0.4-3.1-0.6c-0.9-0.2-1.7-0.3-2.6-0.5c-1-0.2-2.1-0.4-3.2-0.6c-2.2-0.5-4.4-0.9-6.6-1.4
			c-2-0.4-3.9-0.8-5.8-1.3c-5.2-1.2-10.4-2.4-15.5-3.6c-3.7-0.9-7.3-1.8-10.9-2.7c-2.8-0.7-5.6-1.5-8.4-2.2c-1.2-0.3-2.4-0.6-3.6-1
			c-0.9-0.3-1.9-0.5-2.8-0.8c-1.5-0.4-3-0.8-4.5-1.3c-0.4-0.1-0.7-0.2-1.1-0.3c-4.1-1.2-8.2-2.3-12.1-3.5c-0.9-0.3-1.7-0.5-2.6-0.8
			c-1.8-0.5-3.6-1.1-5.3-1.6c-2.2-0.7-4.3-1.3-6.5-2c-0.3-0.1-0.5-0.2-0.8-0.3c-1.6-0.5-3.3-1-4.9-1.6c-1.8-0.6-3.7-1.2-5.4-1.8
			c-2-0.7-4-1.3-6-2c-0.9-0.3-1.7-0.6-2.6-0.9c-1.5-0.5-2.9-1-4.4-1.5c0,0-0.1,0-0.1-0.1c-1.5-0.5-2.9-1-4.4-1.5
			c-1.5-0.5-2.9-1-4.3-1.6c-0.8-0.3-1.6-0.6-2.4-0.9c-1.3-0.5-2.6-1-3.9-1.4c-0.8-0.3-1.6-0.6-2.4-0.9c-1.2-0.5-2.5-0.9-3.7-1.4
			c-0.1-0.1-0.3-0.1-0.4-0.2c-1.2-0.4-2.3-0.9-3.5-1.3c-0.6-0.2-1.3-0.5-1.9-0.7c-0.6-0.2-1.3-0.5-1.9-0.7c-1.2-0.5-2.5-1-3.7-1.5
			c-1.5-0.6-2.9-1.2-4.3-1.7c-0.3-0.1-0.7-0.3-1-0.4c-1.2-0.5-2.3-0.9-3.4-1.4c-1.7-0.7-3.3-1.4-4.9-2c-1.6-0.6-3.1-1.3-4.6-2
			c-0.3-0.1-0.7-0.3-1-0.4c-0.7-0.3-1.3-0.5-1.9-0.8c-1-0.4-1.9-0.8-2.8-1.2c-1.4-0.6-2.7-1.2-4-1.8c-0.8-0.4-1.6-0.7-2.4-1.1
			c-0.1,0-0.1,0-0.1-0.1c-0.8-0.4-1.6-0.7-2.4-1.1c-0.8-0.4-1.5-0.7-2.3-1c-0.7-0.3-1.4-0.7-2.1-1c0,0,0,0-0.1,0
			c-0.7-0.3-1.3-0.6-1.9-0.9C612,1507.6,611.7,1507.5,611.4,1507.3z M706.7,1811.1c-63.3-121-86.4-241.4-94-294.4
			c6.3,2.9,13.9,6.3,22.8,10c0.6,0.2,1.1,0.5,1.7,0.7c2.3,1,4.6,1.9,7.1,2.9c1.1,0.4,2.1,0.9,3.2,1.3c7.3,2.9,15.3,6,23.9,9.1
			c1.1,0.4,2.2,0.8,3.3,1.2c0.9,0.3,1.8,0.6,2.7,1c2.7,1,5.5,2,8.3,2.9c0.1,0,0.3,0.1,0.4,0.1c1.9,0.6,3.9,1.3,5.8,2
			c0.8,0.3,1.6,0.5,2.4,0.8c0.7,0.3,1.5,0.5,2.2,0.7c5.4,1.8,11.1,3.6,16.9,5.4c1.3,0.4,2.6,0.8,3.9,1.2c4,1.2,8.1,2.4,12.2,3.6
			c7.3,2.1,14.5,4.1,21.8,5.9c3.9,1,7.7,2,11.6,2.9c7.5,1.8,14.9,3.5,22.3,5.1c5.4,1.2,10.7,2.3,16,3.3c1,0.2,2.1,0.4,3.1,0.6
			c3.6,0.7,7.1,1.3,10.7,1.9c18.5,3.2,36.9,5.8,55.1,7.6c3.1,0.3,6.2,0.6,9.2,0.9c1.3,0.1,2.7,0.2,4,0.3c2.8,0.2,5.6,0.4,8.4,0.6
			c1.8,0.1,3.5,0.2,5.2,0.3c1.2,0.1,2.4,0.2,3.6,0.2c12.8,0.7,25.6,1.1,38.2,1.1c0.2,0.3,0.3,0.6,0.5,0.9c0.5,0.9,1,1.7,1.5,2.6
			c0.4,0.7,0.9,1.4,1.3,2.1c0.5,0.9,1.1,1.7,1.6,2.6c0.6,0.9,1.1,1.8,1.7,2.7c1.7,2.7,3.4,5.3,5.2,7.9c0.6,0.9,1.2,1.7,1.8,2.6
			c0.7,1.1,1.5,2.1,2.3,3.2c0.5,0.6,0.9,1.3,1.4,1.9c3.7,5.1,7.5,10,11.4,14.9c34.6,42.3,73.6,78.5,99.5,102.5
			c14.4,13.3,28,25.9,29.6,29.6c-0.3,0.2-1,0.6-2.2,1l-0.3,0.1c-9.2,2.5-32.8,0.1-52.1-7.3l-25.7-9.9c-0.9-0.5-2.1-1-3.4-1.5
			c-0.2-0.1-0.4-0.1-0.7-0.2c-0.5-0.1-1-0.3-1.6-0.4c-0.5-0.1-1.1-0.2-1.7-0.3c-0.6-0.1-1.3-0.2-2-0.2c-0.3,0-0.5,0-0.8,0
			c-0.3,0-0.6,0-0.8,0c-0.3,0-0.6,0-0.8,0c-0.3,0-0.6,0-0.9,0.1c-0.3,0-0.5,0-0.8,0.1c-0.1,0-0.1,0-0.2,0c-0.3,0-0.5,0.1-0.8,0.1
			c0,0,0,0,0,0c-0.6,0.1-1.2,0.2-1.8,0.4c-0.3,0.1-0.6,0.2-0.9,0.3c-0.3,0.1-0.6,0.2-0.9,0.3c-0.9,0.3-1.8,0.8-2.6,1.3
			c-1.5,0.8-2.9,1.9-4.3,3.3c-0.3,0.3-0.6,0.6-0.9,0.9c-0.3,0.3-0.5,0.6-0.8,1s-0.5,0.7-0.7,1.1c-0.2,0.4-0.4,0.8-0.6,1.2
			c-0.2,0.4-0.3,0.8-0.4,1.3c-0.1,0.3-0.2,0.6-0.2,0.9c0,0.1,0,0.1-0.1,0.2c0,0.1,0,0.1,0,0.2c-0.1,0.3-0.1,0.7-0.2,1.1
			c-0.1,0.4-0.1,0.8-0.1,1.1c0,0,0,0,0,0c0,0.4-0.1,0.8-0.1,1.2c0,0.1,0,0.2,0,0.3c0,0.4,0,0.8,0,1.2c0,0.8,0,1.5,0.1,2.3
			c0.1,0.8,0.1,1.6,0.2,2.5c0.1,0.9,0.3,1.8,0.4,2.6c0.1,0.5,0.2,0.9,0.3,1.4c0.1,0.5,0.2,0.9,0.3,1.4c0,0.2,0.1,0.4,0.1,0.6
			c0.1,0.2,0.1,0.4,0.1,0.6c0.4,1.5,0.8,3.1,1.3,4.7c0.2,0.6,0.4,1.1,0.6,1.7c0.4,1.1,0.8,2.2,1.2,3.3c0.1,0.2,0.2,0.4,0.2,0.6
			c0.4,1.1,0.9,2.3,1.4,3.4c0.3,0.6,0.6,1.3,0.9,1.9c0.6,1.3,1.2,2.6,1.9,3.9c0.7,1.3,1.4,2.7,2.2,4c0.8,1.4,1.5,2.7,2.4,4.1
			c8.4,14,20.8,29.9,38,47.1c0.9,0.9,1.7,1.7,2.6,2.6s1.8,1.7,2.7,2.6c0.9,0.9,1.8,1.8,2.8,2.6c0.9,0.9,1.9,1.8,2.8,2.7
			c1.4,1.3,2.9,2.7,4.4,4c2.5,2.3,5,4.5,7.7,6.8c1.1,0.9,2.1,1.8,3.2,2.8c8.1,6.9,16.9,14,26.5,21.1c1.3,1,2.6,1.9,3.9,2.9
			c2.6,1.9,5.3,3.8,8,5.8c1.4,1,2.7,1.9,4.1,2.9c3.9,2.7,7.9,5.5,12,8.3c1.9,1.2,3.7,2.5,5.6,3.8c0.6,0.4,1.3,0.8,1.9,1.3
			c1,0.7,2,1.3,3.1,2c0.6,0.4,1.3,0.8,1.9,1.2c1.9,1.2,3.9,2.4,5.9,3.7c0.7,0.4,1.3,0.8,2,1.2c2,1.2,4.1,2.4,6.2,3.6
			c2.3,1.3,4.5,2.5,6.8,3.8c3.5,1.9,7,3.8,10.7,5.6c25.5,13,55.2,25,88.6,36c48.1,15.8,102.6,28.8,157.8,37.6
			c23.9,3.8,47.4,6.8,70.3,8.9c3.3,0.3,6.5,0.6,9.8,0.9c4.9,0.4,9.7,0.8,14.5,1.1c3.2,0.2,6.4,0.4,9.6,0.6
			c76.3,4.5,144.1-0.8,194-15.7c2.6-0.8,5.1-1.6,7.7-2.4c12.8-4.1,25.4-8.7,37.7-13.9c0.9-0.4,1.8-0.8,2.7-1.2
			c0.6-0.2,1.1-0.5,1.6-0.7c1.2-0.5,2.5-1.1,3.7-1.6c2.2-1,4.4-2,6.6-3c0.9-0.4,1.8-0.8,2.7-1.3c2.1-1,4.1-2,6.2-3
			c0.9-0.4,1.8-0.9,2.7-1.3c2.1-1,4.2-2.1,6.3-3.2c1.2-0.6,2.3-1.2,3.5-1.8c0.6-0.3,1.2-0.6,1.7-0.9c1-0.5,2-1,2.9-1.6
			c1.2-0.6,2.4-1.3,3.5-1.9c1.2-0.7,2.3-1.3,3.5-2c1.2-0.7,2.3-1.3,3.5-2c1.4-0.8,2.8-1.6,4.2-2.5c0.9-0.5,1.8-1.1,2.7-1.6
			c0,0,0,0,0,0c1.1-0.7,2.3-1.4,3.4-2.1c0,0,0.1,0,0.1-0.1c1.1-0.7,2.1-1.3,3.2-2c0.7-0.5,1.5-0.9,2.2-1.4c0.8-0.5,1.7-1.1,2.5-1.6
			c0.7-0.5,1.4-0.9,2.2-1.4c1-0.7,2-1.3,3-2c0.3-0.2,0.5-0.4,0.8-0.5c1-0.6,1.9-1.3,2.9-1.9c1.1-0.7,2.2-1.5,3.3-2.2
			c0,0,0.1,0,0.1-0.1c1.1-0.8,2.1-1.5,3.2-2.3c1.1-0.8,2.2-1.5,3.3-2.3c1.1-0.8,2.2-1.6,3.2-2.4c1-0.8,2-1.5,3.1-2.3
			c2.3-1.7,4.6-3.4,6.8-5.2c1-0.7,1.9-1.5,2.8-2.2c1-0.8,2.1-1.7,3.1-2.5c0.9-0.7,1.8-1.4,2.6-2.2c1.2-1,2.3-1.9,3.5-2.9
			c1-0.9,2-1.7,3-2.6c0.9-0.8,1.8-1.5,2.7-2.3c0.6-0.6,1.3-1.1,1.9-1.7c0.8-0.7,1.5-1.3,2.3-2c3.7-3.3,7.3-6.7,10.9-10.1
			c0.9-0.9,1.8-1.7,2.7-2.6c1.4-1.3,2.7-2.6,4-4c0.7-0.7,1.4-1.4,2.1-2.2c2.6-2.6,5.1-5.3,7.6-8c0.9-1,1.8-1.9,2.7-2.9
			c0.9-1,1.8-1.9,2.6-2.9c0.7-0.8,1.3-1.5,2-2.3c1.9-2.2,3.8-4.4,5.7-6.6c0.1-0.1,0.2-0.2,0.2-0.3c0.2,0.1,0.3,0.2,0.5,0.3
			c0.6,0.4,1.2,0.8,1.9,1.2c1.7,1.1,3.6,2.2,5.5,3.4c0.4,0.2,0.7,0.4,1.1,0.7c4.8,2.9,10.4,6.1,16.7,9.5c0.9,0.5,1.8,1,2.8,1.5
			c1.6,0.9,3.2,1.7,4.9,2.6c0.5,0.3,1.1,0.6,1.6,0.8c0.4,0.2,0.8,0.4,1.2,0.6c1.6,0.8,3.2,1.7,4.9,2.5c0.6,0.3,1.1,0.6,1.7,0.8
			c0.6,0.3,1.1,0.6,1.7,0.8c1.1,0.6,2.3,1.1,3.5,1.7c0.6,0.3,1.2,0.6,1.8,0.9c1.6,0.8,3.2,1.5,4.9,2.3c0.8,0.4,1.6,0.8,2.4,1.1
			c1.6,0.7,3.1,1.4,4.7,2.2c0.8,0.4,1.6,0.7,2.4,1.1s1.6,0.7,2.5,1.1c0.6,0.3,1.3,0.6,2,0.9c1.3,0.6,2.7,1.2,4,1.8
			c1.3,0.5,2.6,1.1,3.9,1.6c1.5,0.6,2.9,1.2,4.4,1.8c2.1,0.9,4.3,1.8,6.5,2.6c0,0,0,0,0.1,0c1.4,0.6,2.9,1.1,4.3,1.7
			c2.2,0.9,4.5,1.7,6.8,2.6c1.5,0.6,3.1,1.1,4.6,1.7c1.3,0.5,2.6,0.9,3.9,1.4c1.3,0.5,2.6,0.9,3.9,1.4c1.2,0.4,2.4,0.8,3.6,1.2
			c1,0.3,2,0.7,2.9,1c0.8,0.3,1.6,0.5,2.4,0.8c0.9,0.3,1.8,0.6,2.7,0.9c2.9,0.9,5.8,1.8,8.7,2.7c1.2,0.4,2.5,0.8,3.7,1.1
			c1.7,0.5,3.4,1,5.2,1.5s3.5,1,5.3,1.5s3.5,1,5.3,1.5c0.9,0.2,1.8,0.5,2.7,0.7c0.9,0.2,1.8,0.5,2.7,0.7c1,0.3,2.1,0.5,3.1,0.8
			c2.1,0.5,4.1,1,6.2,1.5c5.2,1.3,10.6,2.4,16,3.6c1.9,0.4,3.8,0.8,5.7,1.1c1.3,0.3,2.6,0.5,3.8,0.7c2.6,0.5,5.1,1,7.7,1.4
			c1.3,0.2,2.6,0.5,3.9,0.7c1.5,0.3,3.1,0.5,4.6,0.8c6.8,1.1,13.6,2,20.6,2.9c2.1,0.3,4.3,0.5,6.5,0.7c3.7,0.4,7.4,0.8,11.1,1.1
			c1.1,0.1,2.1,0.2,3.2,0.3c2.2,0.2,4.5,0.4,6.7,0.5c1,0.1,2,0.1,3,0.2c0.3,0,0.6,0,0.9,0.1c0.5,0,1.1,0.1,1.6,0.1
			c0.6,0,1.3,0.1,1.9,0.1c0.7,0,1.5,0.1,2.2,0.1c0.9,0,1.8,0.1,2.7,0.1c1,0,2,0.1,3.1,0.1c1.4,0.1,2.8,0.1,4.3,0.1
			c1.3,0,2.6,0.1,3.9,0.1c0.5,0,1,0,1.4,0s0.9,0,1.4,0c3.4,0.1,6.8,0.1,10.2,0.1c1.8,0,3.5,0,5.3,0c1.8,0,3.6,0,5.3-0.1
			c1.4,0,2.8-0.1,4.3-0.1c0.1,0,0.2,0,0.3,0c1.2,0,2.4-0.1,3.6-0.1c0.9,0,1.7-0.1,2.6-0.1c0.4,0,0.8,0,1.1-0.1
			c5.4-0.2,10.9-0.5,16.4-1c1-0.1,2.1-0.1,3.1-0.2c3.4-0.3,6.9-0.6,10.3-0.9c1-0.1,2.1-0.2,3.1-0.3c1.7-0.2,3.4-0.4,5.2-0.6
			c3.5-0.4,7-0.8,10.5-1.3c1.8-0.2,3.5-0.5,5.3-0.7c0.6-0.1,1.1-0.2,1.7-0.2c0.8-0.1,1.6-0.2,2.5-0.4c0.4,0,0.8-0.1,1.2-0.2
			c-33.8,87.2-81.2,141.8-115.5,172.4c-0.3,0.3-0.6,0.5-0.9,0.8c-0.4,0.2-0.9,0.5-1.3,0.7c-0.4,0.2-0.8,0.4-1.2,0.6
			c-1.7,0.9-3.4,1.7-5.1,2.4c-0.1,0-0.1,0.1-0.2,0.1c-0.7,0.3-1.4,0.6-2.1,0.9c-0.1,0-0.2,0.1-0.4,0.1c-0.6,0.3-1.3,0.5-2,0.8
			c-0.2,0.1-0.4,0.2-0.7,0.3c-0.7,0.3-1.4,0.5-2.1,0.8c-0.2,0.1-0.5,0.2-0.7,0.3c-0.5,0.2-1.1,0.4-1.6,0.6c-0.3,0.1-0.7,0.2-1.1,0.4
			c-1.7,0.6-3.5,1.1-5.2,1.6c-0.1,0-0.3,0.1-0.4,0.1c-0.9,0.3-1.8,0.5-2.7,0.7c-0.6,0.2-1.3,0.3-1.9,0.5c-0.3,0.1-0.6,0.2-0.9,0.2
			c-0.6,0.1-1.2,0.3-1.7,0.4c-0.4,0.1-0.7,0.2-1.1,0.3c-1.1,0.2-2.2,0.5-3.3,0.7c-0.8,0.2-1.7,0.3-2.5,0.5c-1.9,0.3-3.8,0.7-5.7,1
			c-2.8,0.4-5.6,0.8-8.4,1.1c-1,0.1-2.1,0.3-3.1,0.4c-0.9,0.1-1.7,0.2-2.6,0.3c-1.2,0.1-2.3,0.2-3.5,0.3c-1.1,0.1-2.2,0.2-3.4,0.3
			c-3.6,0.3-7.2,0.5-10.9,0.8c-0.8,0-1.5,0.1-2.3,0.1l-3.2,0.2c-1.1,0.1-2.1,0.1-3.2,0.2c-3.2,0.2-6.5,0.3-9.7,0.5
			c-39.4,1.9-80.1,3.9-119.6,24.1c-71.2,36.4-123.9,46.2-171,31.7c-29.1-9-130.9-35.9-218.5-6c-88.2,30.1-210,25.4-310.3-12
			c-53-19.7-112.6-35.1-168-43.1c-3.6-0.5-7.3-1-10.8-1.5c-0.9-0.1-1.7-0.2-2.6-0.3c-0.2,0-0.5-0.1-0.7-0.1
			c-0.9-0.1-1.9-0.2-2.8-0.4c-1.3-0.2-2.7-0.3-4-0.5c-1.6-0.2-3.3-0.4-4.9-0.5c-1.3-0.1-2.6-0.3-3.9-0.4c-0.8-0.1-1.7-0.2-2.5-0.3
			c-0.7-0.1-1.3-0.1-2-0.2c-0.3,0-0.5-0.1-0.8-0.1c-1-0.1-2.1-0.2-3.1-0.3c-0.4,0-0.8-0.1-1.2-0.1c-0.6-0.1-1.3-0.1-1.9-0.2
			c-0.3,0-0.5,0-0.7-0.1c-1.1-0.1-2.2-0.2-3.3-0.3c-1.3-0.1-2.5-0.2-3.8-0.3c-1.9-0.1-3.8-0.3-5.6-0.4c-3.5-0.2-7-0.4-10.4-0.5
			c-1.5-0.1-3-0.1-4.5-0.2c-1.9-0.1-3.8-0.1-5.7-0.2c-3.3-0.1-6.6-0.1-9.9-0.1c-2.8,0-5.5,0-8.3,0.1c-1.1,0-2.1,0-3.2,0.1
			c-1.1,0-2.1,0-3.2,0.1c-0.9,0-1.8,0.1-2.7,0.1c-3.8,0.1-7.6,0.3-11.3,0.6c-0.4,0-0.8,0-1.2,0.1c-2.9,0.2-5.8,0.4-8.6,0.7
			c-0.4,0-0.7,0.1-1.1,0.1c-2.5,0.3-5,0.5-7.5,0.8c-0.7,0.1-1.3,0.2-2,0.3c-0.8,0.1-1.7,0.2-2.5,0.3c-0.8,0.1-1.5,0.2-2.3,0.3
			c-2,0.3-4,0.6-6,0.9c-0.9,0.2-1.9,0.3-2.8,0.5c-1,0.2-2,0.4-3,0.5c-1.2,0.2-2.4,0.5-3.6,0.7c-0.6,0.1-1.2,0.2-1.8,0.4
			C850.6,2042.6,764.3,1921.2,706.7,1811.1z M2730.5,2606.4h-2461v-451.1c16.6,6.1,68.1,21.5,140.7,9c28.4-4.9,47.7-12.8,64.6-19.8
			c34.9-14.3,62.4-25.7,150.6-0.3c139.9,40.3,210.7,33.2,292.4,5.9c6.1-2,12.6-3.8,19.5-5.4c89.8-20.1,226.4,6.8,321.8,42.3
			c52.5,19.6,110.7,30.7,168.3,32.1c4.5,0.1,8.9,0.2,13.3,0.2c1.8,0,3.5,0,5.3,0c2.5,0,5-0.1,7.5-0.1c1.2,0,2.5-0.1,3.7-0.1
			c0.8,0,1.5,0,2.3-0.1c0.3,0,0.5,0,0.8,0c2.6-0.1,5.1-0.2,7.7-0.4c1.4-0.1,2.7-0.1,4-0.2c0.6,0,1.2-0.1,1.8-0.1
			c0.6,0,1.2-0.1,1.8-0.1c0.6,0,1.3-0.1,1.9-0.1c1.2-0.1,2.5-0.2,3.7-0.3c1.5-0.1,2.9-0.2,4.4-0.4c1.5-0.1,2.9-0.3,4.4-0.4
			c1.2-0.1,2.3-0.2,3.5-0.4c0.6-0.1,1.3-0.1,1.9-0.2c2.4-0.3,4.8-0.6,7.2-0.9c0.3,0,0.7-0.1,1-0.1c1.4-0.2,2.8-0.4,4.2-0.6
			c1.1-0.2,2.3-0.3,3.4-0.5c1.3-0.2,2.5-0.4,3.8-0.6c0.4-0.1,0.9-0.1,1.3-0.2c2.3-0.4,4.6-0.8,6.9-1.2c0.5-0.1,1-0.2,1.5-0.3
			c2.2-0.4,4.3-0.8,6.5-1.3c0.5-0.1,1-0.2,1.5-0.3c2.5-0.5,5-1,7.5-1.6c1.3-0.3,2.7-0.6,4-0.9c2.7-0.6,5.3-1.3,7.9-2
			c2.4-0.6,4.8-1.3,7.2-2c0.5-0.1,0.9-0.3,1.4-0.4c1-0.3,2-0.6,2.9-0.9c1.2-0.3,2.3-0.7,3.5-1.1c1.3-0.4,2.7-0.8,4-1.3
			c1.2-0.4,2.5-0.8,3.7-1.2c85.3-29.1,185-2.8,213.5,6c22.7,7,46.2,8.5,71.9,4.8c30.9-4.5,65.3-16.6,105.1-37
			c38-19.4,77.8-21.4,116.3-23.2c1.4-0.1,2.8-0.1,4.2-0.2c1.4-0.1,2.8-0.1,4.2-0.2c3.4-0.2,6.7-0.4,10.1-0.6
			c1.6-0.1,3.1-0.2,4.7-0.3c1-0.1,1.9-0.1,2.9-0.2c1-0.1,1.9-0.1,2.9-0.2c1-0.1,2-0.2,2.9-0.3c1.4-0.1,2.8-0.2,4.1-0.4
			c1.1-0.1,2.1-0.2,3.2-0.3c0.5,0,1.1-0.1,1.6-0.2c0.8-0.1,1.6-0.2,2.4-0.3c0.9-0.1,1.9-0.2,2.8-0.4c0.9-0.1,1.8-0.3,2.8-0.4
			c1-0.1,2-0.3,3-0.5c1-0.2,2.1-0.3,3.1-0.5c1-0.2,2-0.4,3.1-0.6c1-0.2,2.1-0.4,3.1-0.6c1-0.2,2-0.4,2.9-0.6c1-0.2,2-0.5,3-0.7
			c0.9-0.2,1.7-0.4,2.6-0.7c0.3-0.1,0.5-0.1,0.7-0.2c0.7-0.2,1.3-0.4,2-0.5c0.9-0.3,1.8-0.5,2.7-0.8c0.7-0.2,1.4-0.5,2.2-0.7
			c0.1,0,0.2-0.1,0.4-0.1c0.8-0.3,1.7-0.6,2.5-0.9c0.6-0.2,1.1-0.4,1.7-0.6c0.4-0.1,0.8-0.3,1.2-0.4c0.4-0.2,0.8-0.3,1.3-0.5
			c0.1,0,0.1,0,0.2-0.1c0.8-0.3,1.6-0.7,2.4-1c0.5-0.2,0.9-0.4,1.4-0.6c0.6-0.2,1.2-0.5,1.7-0.8c0.6-0.3,1.1-0.5,1.7-0.8
			c0.8-0.4,1.6-0.8,2.4-1.2c0,0,0.1,0,0.1-0.1c0.7-0.3,1.3-0.7,1.9-1c0.6-0.3,1.3-0.7,1.9-1.1c0.1-0.1,0.3-0.1,0.4-0.2
			c0.4-0.2,0.8-0.5,1.2-0.7c115.8-16,173.3-3.5,224.1,7.6c29.3,6.4,57.1,12.5,92.3,12.1c86.7-0.9,212.3,31.5,233,37.1V2606.4z"/>
    <path fill="#DE832C" d="M1615.2,1204.9c0.5,0.6,1,1.2,1.5,1.8c1,1.2,2,2.4,3,3.7c0.5,0.6,1,1.3,1.5,1.9c7.5,9.6,15.4,20.4,23.1,32
			c0.4,0.6,0.8,1.2,1.2,1.8c0.6,1,1.2,1.9,1.8,2.9c0.5,0.8,1,1.6,1.5,2.4c0.1,0.1,0.1,0.2,0.2,0.3c0.8,1.3,1.6,2.6,2.4,4
			c0.1,0.2,0.2,0.4,0.4,0.6c0.7,1.2,1.5,2.5,2.2,3.7c0.8,1.4,1.7,2.9,2.5,4.4c0.8,1.5,1.7,2.9,2.5,4.4c0.5,0.9,0.9,1.7,1.4,2.6
			s0.9,1.7,1.4,2.6c0.4,0.8,0.8,1.6,1.3,2.4c0.4,0.8,0.8,1.6,1.2,2.4c0.5,1,1,2,1.5,3c0.4,0.9,0.8,1.8,1.3,2.6
			c0.8,1.8,1.7,3.5,2.5,5.3c0.8,1.8,1.6,3.6,2.3,5.3c0.4,0.9,0.8,1.8,1.1,2.7c0.1,0.1,0.1,0.3,0.2,0.4c0.3,0.6,0.5,1.2,0.8,1.9
			c0.1,0.2,0.1,0.4,0.2,0.5c0.4,0.9,0.7,1.7,1,2.6c0.6,1.5,1.1,3,1.7,4.5c0.3,0.9,0.6,1.7,0.9,2.6c1.8,5.1,3.4,10.3,4.8,15.5
			c0.4,1.7,0.8,3.3,1.2,5c0.2,0.9,0.4,1.9,0.6,2.8c17.9-1.9,36.3-2.2,54.6-0.9c80,5.5,147.9,39.3,196.3,97.8
			c26.9,32.5,47.4,72.7,59.1,116.2c11.4,42.4,14.6,88.2,9.4,132.5c-0.2,1.7-0.4,3.5-0.7,5.2c0,0.3-0.1,0.6-0.1,0.8
			c-0.2,1.2-0.3,2.4-0.5,3.5c-0.2,1.1-0.3,2.3-0.5,3.5c-0.2,1.1-0.3,2.1-0.5,3.2c-0.4,2.2-0.7,4.3-1.1,6.5c-0.2,1.1-0.4,2.1-0.6,3.2
			c-0.4,2-0.8,4-1.2,6c-0.2,0.9-0.4,1.8-0.6,2.7c-0.1,0.6-0.3,1.1-0.4,1.7c-0.2,0.8-0.4,1.6-0.6,2.5c-0.9,3.9-1.9,7.8-2.9,11.7
			c-0.2,0.6-0.3,1.3-0.5,2c-0.3,0.9-0.5,1.9-0.8,2.8c-0.3,1-0.6,1.9-0.8,2.9c-0.3,1-0.6,1.9-0.9,2.9c-0.2,0.8-0.5,1.6-0.7,2.4
			c-0.3,0.8-0.5,1.6-0.8,2.5c-0.3,0.8-0.5,1.6-0.8,2.5c-0.1,0.2-0.1,0.4-0.2,0.6c-0.5,1.4-0.9,2.9-1.4,4.3c0,0,0,0.1-0.1,0.1
			c-0.5,1.6-1.1,3.1-1.6,4.7c-0.6,1.7-1.2,3.4-1.9,5.1c-0.3,0.7-0.5,1.5-0.8,2.2c-0.6,1.7-1.3,3.4-2,5.1c-0.3,0.9-0.7,1.8-1,2.6
			c-0.3,0.6-0.5,1.3-0.8,1.9c-0.3,0.7-0.6,1.4-0.9,2.2c0,0.1-0.1,0.2-0.1,0.3c-0.4,0.9-0.7,1.7-1.1,2.6c-0.4,0.9-0.8,1.8-1.2,2.7
			c-0.4,0.9-0.8,1.8-1.2,2.7s-0.8,1.8-1.2,2.7c-1.7,3.6-3.4,7.2-5.2,10.8c-0.5,1-1,2-1.5,2.9c-0.5,1-1,2-1.5,3s-1,2-1.5,2.9
			c-0.5,1-1,1.9-1.6,2.9c-0.4,0.7-0.8,1.4-1.2,2.1c-0.8,1.4-1.6,2.8-2.4,4.3c-0.8,1.3-1.5,2.6-2.3,4c-0.8,1.3-1.6,2.6-2.3,3.9
			c0,0,0,0.1-0.1,0.1c-0.7,1.2-1.4,2.4-2.2,3.5c-0.9,1.4-1.7,2.8-2.6,4.2c-0.8,1.3-1.6,2.6-2.5,3.8c-0.8,1.3-1.7,2.6-2.5,3.9
			c-0.9,1.3-1.7,2.6-2.6,3.8c-0.4,0.6-0.8,1.1-1.2,1.7c-0.6,0.9-1.3,1.8-1.9,2.7c-1,1.5-2.1,2.9-3.2,4.4c-0.6,0.8-1.2,1.7-1.8,2.5
			c-1.5,2-3,4-4.5,6c-0.5,0.7-1.1,1.4-1.6,2.1c-0.7,0.9-1.4,1.8-2.1,2.6c-0.5,0.6-0.9,1.2-1.4,1.8h0v0c0.2,0.1,0.4,0.2,0.6,0.4
			c0.4,0.3,0.8,0.5,1.3,0.8c1.1,0.7,2.2,1.4,3.4,2.1c1.5,0.9,3.2,1.9,4.9,2.9c0.8,0.5,1.5,0.9,2.3,1.4c0.4,0.2,0.8,0.5,1.3,0.7
			c1.2,0.7,2.4,1.4,3.7,2.1c0.5,0.3,1,0.6,1.5,0.9c0.5,0.3,0.9,0.5,1.4,0.8c1.8,1,3.7,2.1,5.7,3.1c1.2,0.7,2.5,1.4,3.8,2
			c1.5,0.8,3,1.6,4.6,2.4c0.8,0.4,1.7,0.9,2.5,1.3c2.2,1.1,4.5,2.3,6.8,3.4c0.6,0.3,1.2,0.6,1.8,0.9c3,1.5,6,2.9,9.2,4.4
			c1.9,0.9,3.8,1.8,5.7,2.6c0.7,0.3,1.3,0.6,2,0.9c0.7,0.3,1.3,0.6,2,0.9c0.7,0.3,1.3,0.6,2,0.9c2,0.9,4.1,1.8,6.2,2.6
			c0.5,0.2,0.9,0.4,1.4,0.6c3.8,1.6,7.8,3.2,11.9,4.8c1.3,0.5,2.7,1.1,4.1,1.6c0.9,0.3,1.7,0.7,2.6,1c1.7,0.7,3.4,1.3,5.2,1.9
			c1.7,0.6,3.5,1.3,5.3,1.9c2.7,1,5.4,1.9,8.1,2.8c0.9,0.3,1.7,0.6,2.6,0.9c1,0.3,2.1,0.7,3.1,1c0.9,0.3,1.7,0.6,2.6,0.8
			c1.5,0.5,3,1,4.5,1.4c0.8,0.3,1.6,0.5,2.4,0.8c4.2,1.3,8.6,2.6,13,3.8c2.7,0.8,5.3,1.5,8.1,2.2c0.9,0.3,1.8,0.5,2.7,0.7
			c2.6,0.7,5.3,1.4,7.9,2c2,0.5,4,1,6,1.5c2,0.5,4.1,1,6.1,1.4c3.1,0.7,6.2,1.4,9.4,2c2.1,0.4,4.2,0.9,6.3,1.3c0,0,0,0,0,0
			c2.1,0.4,4.3,0.8,6.4,1.2c1.1,0.2,2.2,0.4,3.3,0.6c2.9,0.5,5.8,1,8.8,1.5c2.9,0.5,5.9,0.9,8.9,1.3c1.5,0.2,3,0.4,4.5,0.6
			c5.2,0.7,10.5,1.3,15.9,1.9c1.1,0.1,2.1,0.2,3.2,0.3c3.2,0.3,6.5,0.6,9.8,0.8c3.3,0.3,6.5,0.5,9.8,0.7c1.1,0.1,2.3,0.1,3.4,0.2
			c2.2,0.1,4.5,0.2,6.7,0.3c1.1,0.1,2.3,0.1,3.4,0.1c2.3,0.1,4.5,0.1,6.8,0.2c2.2,0,4.4,0.1,6.7,0.1c1.3,0,2.5,0,3.8,0
			c3.4,0,6.8,0,10.3-0.1c1.1,0,2.2,0,3.3-0.1c1.1,0,2.2-0.1,3.3-0.1c2.2-0.1,4.4-0.1,6.7-0.3c2.2-0.1,4.5-0.2,6.7-0.4
			c1.1-0.1,2.2-0.1,3.4-0.2c1.1-0.1,2.3-0.1,3.4-0.2c1-0.1,1.9-0.1,2.9-0.2c0.9-0.1,1.8-0.1,2.6-0.2c0.3,0,0.7-0.1,1-0.1
			c1.1-0.1,2.2-0.2,3.2-0.3c1-0.1,2-0.2,3-0.3c1.2-0.1,2.5-0.2,3.7-0.4c1.8-0.2,3.7-0.4,5.5-0.6c0.2,0,0.3,0,0.5-0.1
			c1-0.1,2-0.2,3-0.4c1.6-0.2,3.2-0.4,4.8-0.6c0.5-0.1,1-0.1,1.5-0.2c0.2,0,0.4,0,0.6-0.1c1.2-0.1,2.4-0.3,3.7-0.5
			c0.5-0.1,1-0.1,1.5-0.2c1.1-0.1,2.2-0.3,3.2-0.5c1-0.1,2-0.3,2.9-0.5c0.5-0.1,1-0.1,1.5-0.2c0.4-0.1,0.9-0.1,1.3-0.2
			c0.2,0,0.4-0.1,0.6-0.1c0.2,0,0.4-0.1,0.6-0.1v0c6.3-17.1,11.9-35.1,16.8-53.5c28.2-107.3,42.3-202.7,42.3-295.4
			c0-92.7-14.1-182.9-42.2-279.9c-7.9-27.4-16.9-54.6-26.6-81.1c-0.1,0-0.3,0.1-0.4,0.1c-1.1,0.3-2.3,0.6-3.5,0.9
			c-0.1,0-0.2,0.1-0.3,0.1c-1.4,0.3-2.8,0.7-4.2,1c-1.1,0.3-2.2,0.5-3.3,0.8c-1.1,0.3-2.3,0.5-3.5,0.8c-0.8,0.2-1.6,0.4-2.4,0.5
			c-1.6,0.4-3.3,0.7-5,1.1c-1.7,0.4-3.4,0.7-5.2,1.1c-0.9,0.2-1.8,0.4-2.7,0.5c-0.9,0.2-1.8,0.4-2.8,0.5c-0.9,0.2-1.9,0.4-2.8,0.5
			c-1,0.2-1.9,0.4-2.9,0.5c-0.6,0.1-1.2,0.2-1.8,0.3c-0.6,0.1-1.2,0.2-1.9,0.3c-0.9,0.2-1.8,0.3-2.7,0.5c-0.9,0.1-1.8,0.3-2.7,0.4
			c-2.1,0.4-4.2,0.7-6.4,1.1c-1.1,0.2-2.2,0.4-3.3,0.5c-0.4,0.1-0.9,0.1-1.3,0.2c-0.2,0-0.4,0.1-0.6,0.1c-0.2,0-0.4,0.1-0.6,0.1h0
			c0,0,0,0-0.1,0c0,0,0,0,0,0c-0.1,0-0.1,0-0.2,0c-0.1,0-0.1,0-0.2,0c-0.1,0-0.1,0-0.1,0c0,0-0.1,0-0.1,0h0c-0.1,0-0.1,0-0.1,0
			c0,0,0,0-0.1,0c-0.4,0.1-0.8,0.1-1.1,0.2c-0.5,0.1-1,0.2-1.5,0.2c-1.5,0.2-3.1,0.5-4.7,0.7c-2.2,0.3-4.5,0.6-6.7,1
			c-0.1,0-0.1,0-0.2,0c-2.4,0.3-4.8,0.6-7.2,1h0c-1.3,0.2-2.5,0.3-3.8,0.5c-2.4,0.3-4.9,0.6-7.4,0.9c-1.4,0.2-2.9,0.3-4.3,0.5
			c-1.3,0.2-2.7,0.3-4,0.5c-1.7,0.2-3.5,0.4-5.3,0.6c-2.4,0.3-4.8,0.5-7.3,0.8c-1.4,0.1-2.9,0.3-4.3,0.4c0,0-0.1,0-0.1,0
			c-1.4,0.1-2.8,0.3-4.3,0.4c-1.8,0.2-3.7,0.3-5.5,0.5c-1.1,0.1-2.3,0.2-3.4,0.3c-2.4,0.2-4.8,0.4-7.3,0.6c-1.3,0.1-2.6,0.2-4,0.3
			c-0.9,0.1-1.8,0.1-2.7,0.2c-1.6,0.1-3.2,0.2-4.8,0.3c-1.5,0.1-3,0.2-4.5,0.3c-0.1,0-0.2,0-0.4,0c-1.6,0.1-3.1,0.2-4.7,0.3
			c-0.2,0-0.5,0-0.7,0c-1.5,0.1-3,0.2-4.4,0.3c-1.7,0.1-3.3,0.2-5,0.3c-1.3,0.1-2.6,0.1-3.8,0.2c-2.3,0.1-4.6,0.2-6.9,0.3
			c-1.3,0.1-2.6,0.1-3.9,0.2c-0.9,0-1.9,0.1-2.8,0.1c-1.1,0-2.2,0.1-3.3,0.1c-1.8,0.1-3.6,0.1-5.4,0.2c-1.8,0.1-3.6,0.1-5.4,0.2
			c-3.6,0.1-7.3,0.2-11.1,0.3c-1.7,0-3.3,0.1-5,0.1c-0.6,0-1.2,0-1.8,0c-0.8,0-1.7,0-2.5,0c-0.8,0-1.7,0-2.5,0c-0.7,0-1.4,0-2.2,0
			c-2.8,0-5.5,0-8.4,0.1c-14.3,0.1-29.3-0.1-44.8-0.5c-73.7-1.8-147.2-15.8-218.3-41.6c-3.6-1.3-7.2-2.6-10.7-4
			c-0.9-0.3-1.7-0.7-2.6-1c-1.7-0.7-3.4-1.3-5.1-2c-1.3-0.5-2.5-1-3.8-1.5c-1.6-0.6-3.2-1.3-4.7-1.9c-1.3-0.5-2.6-1.1-3.9-1.6
			c-1.6-0.7-3.2-1.3-4.8-2s-3.1-1.3-4.7-2c-0.8-0.3-1.5-0.7-2.3-1c-0.1,0-0.2-0.1-0.3-0.1c-1.1-0.5-2.2-1-3.2-1.4
			c-0.3-0.1-0.7-0.3-1-0.4c-0.7-0.3-1.5-0.6-2.2-1c-0.7-0.3-1.5-0.7-2.2-1c-1.3-0.6-2.7-1.2-4-1.8c-0.1-0.1-0.2-0.1-0.3-0.2
			c-0.7-0.3-1.4-0.7-2.1-1s-1.4-0.6-2.1-1c-0.7-0.3-1.4-0.6-2.1-1c-0.5-0.2-0.9-0.4-1.3-0.6c-0.9-0.4-1.8-0.9-2.7-1.3
			c-1.3-0.6-2.6-1.3-3.9-1.9c-0.6-0.3-1.3-0.6-1.9-1c-0.6-0.3-1.3-0.6-1.9-0.9s-1.3-0.6-1.9-0.9c-0.6-0.3-1.2-0.6-1.8-0.9
			c-0.6-0.3-1.2-0.6-1.8-0.9c-0.6-0.3-1.2-0.6-1.8-0.9c-1.2-0.6-2.3-1.2-3.5-1.8c-0.7-0.4-1.5-0.8-2.2-1.1c-0.9-0.5-1.8-1-2.7-1.4
			c0,0-0.1,0-0.1-0.1c-0.9-0.5-1.9-1-2.8-1.5c-1.7-0.9-3.4-1.8-5-2.7c-1-0.6-2-1.1-2.9-1.6c-0.5-0.3-0.9-0.5-1.4-0.8
			c-0.5-0.3-0.9-0.5-1.4-0.8c-0.6-0.4-1.3-0.7-1.9-1.1c-0.7-0.4-1.4-0.8-2.1-1.2c-1.3-0.7-2.5-1.5-3.7-2.1c-0.4-0.2-0.8-0.5-1.2-0.7
			c-0.4-0.3-0.9-0.5-1.3-0.8c-0.4-0.3-0.8-0.5-1.2-0.8c-0.5-0.3-1-0.6-1.5-0.9c-0.1,0-0.1-0.1-0.2-0.1c-21,24.3-48.1,31.6-64.4,33.6
			c2.2,2.5,4.4,5.1,6.7,7.9C1613.3,1202.6,1614.3,1203.8,1615.2,1204.9z"/>
    <path fill="#DE832C" d="M2246.4,799c-0.3,1.3-0.6,2.5-0.9,3.8c-0.2,1-0.5,2-0.8,3c-0.4,1.4-0.7,2.9-1.1,4.3
			c-0.9,3.3-1.8,6.5-2.8,9.7c-0.2,0.7-0.4,1.4-0.7,2.2c-0.2,0.6-0.4,1.3-0.6,1.9c-0.2,0.8-0.5,1.5-0.7,2.2c-0.1,0.4-0.3,0.9-0.4,1.3
			c-0.4,1.2-0.8,2.4-1.2,3.6c-0.5,1.3-0.9,2.7-1.4,4c-0.5,1.3-1,2.7-1.5,4c-20.5,52.8-47.4,79.2-65.3,96.7
			c-16.4,16.1-21.2,21.6-14.2,31.5l1.9,2.7c0.7,1,1.5,2.1,2.4,3.4c0.3,0.5,0.6,0.9,1,1.4c0.3,0.5,0.7,1,1.1,1.5
			c0.6,0.9,1.3,1.9,2,2.8c0.6,0.8,1.1,1.6,1.7,2.4c0.5,0.7,1,1.5,1.5,2.2c2.8,4,5.9,8.5,9.3,13.5c0.4,0.6,0.8,1.2,1.2,1.8
			c1.6,2.5,3.3,5,5.1,7.7c118-11.3,218.5-72.4,282.1-121.8c75.7-58.7,121.5-118,125.4-138.2c0.8-4,1.2-8,1.2-11.9
			c0-16.5-6.9-31.1-19.4-39.8c-12.9-9-28.9-9.4-42.8-1.1c-24.9,14.9-73.1,28.7-121.6,28.7c-20.4,0-40.9-2.4-59.7-8.3
			c-35.1-10.9-68.7-19.5-92.3-25.1c0,0.6,0.1,1.2,0.1,1.7c0.1,1.5,0.2,3,0.3,4.4c0,0.1,0,0.2,0,0.2c0.1,1.4,0.1,2.8,0.2,4.3
			c0,1.1,0.1,2.2,0.1,3.3c0,1.3,0.1,2.6,0.1,3.9c0,1.3,0.1,2.6,0.1,3.9c0,1.3,0,2.5,0,3.8c0,1.3,0,2.5,0,3.8c0,0.8,0,1.6,0,2.4
			c-0.1,3.7-0.2,7.3-0.3,11c0,1-0.1,1.9-0.1,2.8c-0.1,1.2-0.1,2.3-0.2,3.5c0,0.8-0.1,1.6-0.2,2.4c-0.1,1.2-0.2,2.5-0.3,3.7
			c-0.2,2.4-0.4,4.8-0.6,7.2c-0.1,1.4-0.3,2.9-0.4,4.3c0,0,0,0.1,0,0.1c-0.3,2.8-0.6,5.6-1,8.4c-0.3,2.7-0.7,5.3-1.1,7.9
			c-0.1,1-0.3,2-0.5,3c-0.1,0.5-0.2,1-0.3,1.5c-0.1,0.9-0.3,1.8-0.4,2.7c-0.1,0.4-0.1,0.7-0.2,1.1c-0.2,1.1-0.4,2.2-0.6,3.3
			c-0.2,1.3-0.5,2.6-0.7,3.9c-0.5,2.6-1,5.2-1.6,7.7C2247,796.5,2246.7,797.7,2246.4,799z"/>
    <path fill="#374552" d="M2497.5,2149.4c-35.2,0.4-62.9-5.7-92.3-12.1c-50.8-11.1-108.3-23.7-224.1-7.6c-0.4,0.2-0.8,0.5-1.2,0.7
			c-0.1,0.1-0.3,0.1-0.4,0.2c-0.6,0.4-1.3,0.7-1.9,1.1c-0.6,0.4-1.3,0.7-1.9,1c-0.1,0-0.1,0-0.1,0.1c-0.8,0.4-1.6,0.8-2.4,1.2
			c-0.6,0.3-1.1,0.5-1.7,0.8c-0.6,0.3-1.1,0.5-1.7,0.8c-0.5,0.2-0.9,0.4-1.4,0.6c-0.8,0.3-1.6,0.7-2.4,1c-0.1,0-0.1,0-0.2,0.1
			c-0.4,0.2-0.8,0.3-1.3,0.5c-0.4,0.1-0.8,0.3-1.2,0.4c-0.6,0.2-1.1,0.4-1.7,0.6c-0.8,0.3-1.7,0.6-2.5,0.9c-0.1,0-0.2,0.1-0.4,0.1
			c-0.7,0.2-1.4,0.5-2.2,0.7c-0.9,0.3-1.8,0.5-2.7,0.8c-0.7,0.2-1.3,0.4-2,0.5c-0.2,0.1-0.5,0.1-0.7,0.2c-0.9,0.2-1.7,0.5-2.6,0.7
			c-1,0.2-2,0.5-3,0.7c-1,0.2-1.9,0.4-2.9,0.6c-1,0.2-2.1,0.4-3.1,0.6c-1,0.2-2,0.4-3.1,0.6c-1,0.2-2,0.4-3.1,0.5
			c-1,0.2-2,0.3-3,0.5c-0.9,0.1-1.8,0.3-2.8,0.4c-0.9,0.1-1.9,0.3-2.8,0.4c-0.8,0.1-1.6,0.2-2.4,0.3c-0.5,0.1-1,0.1-1.6,0.2
			c-1.1,0.1-2.1,0.2-3.2,0.3c-1.4,0.1-2.8,0.3-4.1,0.4c-1,0.1-2,0.2-2.9,0.3c-1,0.1-1.9,0.2-2.9,0.2c-1,0.1-1.9,0.1-2.9,0.2
			c-1.6,0.1-3.1,0.2-4.7,0.3c-3.3,0.2-6.7,0.4-10.1,0.6c-1.4,0.1-2.8,0.1-4.2,0.2c-1.4,0.1-2.8,0.1-4.2,0.2
			c-38.5,1.9-78.4,3.8-116.3,23.2c-39.8,20.4-74.2,32.5-105.1,37c-25.7,3.8-49.2,2.2-71.9-4.8c-28.5-8.8-128.3-35.1-213.5-6
			c-1.2,0.4-2.4,0.8-3.7,1.2c-1.3,0.4-2.6,0.9-4,1.3c-1.2,0.4-2.3,0.7-3.5,1.1c-1,0.3-1.9,0.6-2.9,0.9c-0.5,0.1-0.9,0.3-1.4,0.4
			c-2.4,0.7-4.8,1.3-7.2,2c-2.6,0.7-5.2,1.3-7.9,2c-1.3,0.3-2.6,0.6-4,0.9c-2.5,0.6-5,1.1-7.5,1.6c-0.5,0.1-1,0.2-1.5,0.3
			c-2.2,0.4-4.3,0.9-6.5,1.3c-0.5,0.1-1,0.2-1.5,0.3c-2.3,0.4-4.6,0.8-6.9,1.2c-0.5,0.1-0.9,0.1-1.3,0.2c-1.2,0.2-2.5,0.4-3.8,0.6
			c-1.1,0.2-2.3,0.3-3.4,0.5c-1.4,0.2-2.8,0.4-4.2,0.6c-0.3,0-0.7,0.1-1,0.1c-2.4,0.3-4.8,0.6-7.2,0.9c-0.6,0.1-1.3,0.1-1.9,0.2
			c-1.1,0.1-2.3,0.3-3.5,0.4c-1.5,0.1-2.9,0.3-4.4,0.4c-1.5,0.1-2.9,0.3-4.4,0.4c-1.2,0.1-2.5,0.2-3.7,0.3c-0.6,0.1-1.3,0.1-1.9,0.1
			c-0.6,0.1-1.2,0.1-1.8,0.1c-0.6,0-1.2,0.1-1.8,0.1c-1.3,0.1-2.7,0.2-4,0.2c-2.6,0.1-5.1,0.3-7.7,0.4c-0.3,0-0.5,0-0.8,0
			c-0.8,0-1.5,0-2.3,0.1c-1.2,0-2.5,0.1-3.7,0.1c-2.5,0.1-5,0.1-7.5,0.1c-1.8,0-3.5,0-5.3,0c-4.4,0-8.8-0.1-13.3-0.2
			c-57.6-1.5-115.8-12.6-168.3-32.1c-95.5-35.6-232-62.5-321.8-42.3c-6.9,1.5-13.4,3.4-19.5,5.4c-81.7,27.2-152.4,34.3-292.4-5.9
			c-88.2-25.4-115.7-14-150.6,0.3c-17,7-36.2,14.9-64.6,19.8c-72.6,12.5-124.1-2.9-140.7-9v451.1h2461v-419.9
			C2709.8,2180.9,2584.3,2148.5,2497.5,2149.4z"/>
    <path d="M2354,791.2c-8.4,0-16.1-1.7-22.5-3.8c-18.5-6.2-31.1-17.7-31.6-18.2l3.4-3.7c0.1,0.1,12.4,11.3,30,17.1
			c23.2,7.7,44.3,3,62.6-14.1l3.4,3.7C2383.8,786.6,2367.9,791.2,2354,791.2z"/>
    <ellipse cx="2012" cy="709.4" rx="43.5" ry="41"/>
</svg>
